<svg width="160" height="124" viewBox="0 0 160 124" fill="none" xmlns="http://www.w3.org/2000/svg">
<path d="M55.8297 50.2335H62.8417V55.372H55.8297V50.2335ZM56.1514 59.3255H62.531V86.4578H56.1514V59.3255Z" fill="white"/>
<path d="M74.2362 62.825C75.2568 61.5407 76.5634 60.5117 78.0522 59.8196C79.541 59.1275 81.1709 58.7915 82.8126 58.8383V63.4231C78.0861 63.4231 75.0461 65.505 74.9795 71.0201V86.4578H68.6111V59.3255H73.1267L74.2362 62.825Z" fill="white"/>
<path d="M86.4517 68.3955C86.4517 61.1196 92.1878 58.8383 97.2693 58.8383C102.351 58.8383 108.131 61.0531 108.131 68.3955V74.7854H92.8424V76.4133C92.8424 81.0203 94.6509 82.2828 97.2804 82.2938C99.5992 82.2938 101.552 81.2528 101.718 77.5318H108.065C107.976 84.7191 102.24 86.8897 97.2138 86.8897C92.1878 86.8897 86.3962 84.6748 86.3962 77.3436L86.4517 68.3955ZM101.741 68.9824C101.741 64.6302 99.6436 63.4452 97.3026 63.4452C94.9615 63.4452 92.8646 64.5526 92.8646 68.9824V70.9869H101.741V68.9824Z" fill="white"/>
<path d="M118.938 78.6946C119.049 81.3746 121.256 82.2828 123.376 82.2828C125.939 82.2828 127.814 81.3414 127.814 78.8718C127.814 75.8928 125.595 74.8518 121.933 74.1874C117.695 73.5672 113.057 71.4963 113.057 66.6789C113.057 61.1417 117.739 58.8383 123.353 58.8383C128.723 58.8383 133.594 61.5183 133.738 66.8561V67.3655H127.381V66.9226C127.226 64.3312 125.306 63.4452 123.376 63.4452C121.157 63.4452 119.404 64.1872 119.404 66.3578C119.404 68.5284 122 69.4586 123.975 69.8684C132.096 71.2416 134.249 74.6414 134.249 78.6282C134.249 84.4644 129.489 86.9229 123.409 86.9229C118.205 86.9229 112.691 84.3426 112.569 78.8608V78.0966H118.949L118.938 78.6946Z" fill="white"/>
<path d="M144.7 78.6946C144.811 81.3747 147.008 82.2828 149.138 82.2828C151.701 82.2828 153.576 81.3414 153.576 78.8718C153.576 75.8928 151.357 74.8518 147.707 74.1874C143.469 73.5672 138.831 71.4963 138.831 66.6789C138.831 61.1417 143.502 58.8383 149.127 58.8383C154.497 58.8383 159.357 61.5183 159.512 66.8561V67.3655H153.154V66.9226C152.999 64.3312 151.069 63.4452 149.138 63.4452C146.919 63.4452 145.166 64.1872 145.166 66.3578C145.166 68.5284 147.762 69.4586 149.737 69.8684C157.759 71.2416 159.9 74.6414 159.9 78.595C159.9 84.4312 155.152 86.8897 149.072 86.8897C143.857 86.8897 138.343 84.3094 138.232 78.8275V78.0634H144.6L144.7 78.6946Z" fill="white"/>
<path d="M41.4729 124L0 77.0446L82.5685 0L94.3846 53.2014L88.9702 54.4085L79.2622 10.6757L7.72207 77.4211L43.5365 117.964L100.243 107.145L98.5563 92.7481L104.07 92.1057L106.345 111.619L41.4729 124Z" fill="white"/>
</svg>
