<svg width="1378" height="248" viewBox="0 0 1378 248" fill="none" xmlns="http://www.w3.org/2000/svg">
<path d="M291.06 247.62H253.88L220.62 190.52L144.22 59.49L143.63 58.48L143.62 58.46L160.44 28.1L161.74 25.78L282.08 232.24L291.06 247.62Z" fill="#F2F2F2"/>
<path d="M124.76 27.86L52.89 157.65L19.67 217.62L18.58 219.61L17.53 217.74L16.41 215.69L2.52 190.63L0.779999 187.54L1.55 186.12L16.88 158.45L32.67 129.91L35.25 125.55L35.19 125.42L72.44 58.11L89.14 27.98L104.16 0.869995H139.72L125.06 27.34L124.76 27.86Z" fill="#F2F2F2"/>
<path d="M187.29 217.49H55.56L70.31 190.89H172.56L187.29 217.49Z" fill="#F2F2F2"/>
<path d="M416.14 31.54L313.06 217.62L310.51 222.24L291.94 190.51L291.35 189.51L291 188.89L363.3 58.36L380.25 27.73H248.94L263.8 1.12H399.18L414.21 28.1L416.06 31.41L416.14 31.54Z" fill="#F2F2F2"/>
<path d="M379.42 28.23L367.75 49.28L363 57.86H264.8L248.52 28.47L248.65 28.23H379.42Z" fill="white"/>
<path d="M432.44 60.78L361.85 188.28L360.55 190.51L360.38 190.89H360.39L328.96 247.62H291.63L275.39 219.77L163.51 27.86L161.74 24.77L161.72 24.76L151.03 44.09L148.37 48.88L143.31 57.98L143.04 58.48L54.7 217.99H187.59L187.81 218.38L171.47 247.62H34.36L18.99 219.88L140.15 1.12H180.5L290.43 188.89L310.54 223.25L413.57 37.21L416.44 32.06L431.02 58.22L432.44 60.78Z" fill="white"/>
<path d="M143.62 58.46L160.44 28.1L143.63 58.48L143.62 58.46Z" fill="white"/>
<path d="M291.06 247.62H291.05L282.08 232.24L291.06 247.62Z" fill="white"/>
<path d="M291.35 189.51L291 188.89L291.35 189.48V189.51Z" fill="white"/>
<path d="M291.94 190.51L291.35 189.51L291.94 190.51L310.51 222.24L291.94 190.51Z" fill="white"/>
<path d="M431.02 58.22L432.44 60.78L361.85 188.28L360.55 190.51L360.38 190.89H360.39L328.96 247.62H291.63L275.39 219.77L163.51 27.86L161.74 24.77L151.03 44.09L148.37 48.88L143.31 57.98L143.04 58.48L54.7 217.99H187.59L187.81 218.38L171.47 247.62H34.36L18.99 219.88L140.15 1.12H180.5L290.43 188.89L310.54 223.25L313.5 217.86L384.68 89.37L401.24 59.44L413.57 37.21L416.44 32.06L431.02 58.22Z" fill="white"/>
<path d="M432.44 60.78L361.85 188.28L360.55 190.51L360.38 190.89H360.39L328.96 247.62H291.63L275.39 219.77L163.51 27.86L161.74 24.77L151.03 44.09L148.37 48.88L143.31 57.98L143.04 58.48L54.7 217.99H187.59L187.81 218.38L171.47 247.62H34.36L18.99 219.88L140.15 1.12H180.5L290.43 188.89L310.54 223.25L313.5 217.86L384.68 89.37L401.24 59.44L413.57 37.21L416.44 32.06L431.02 58.22L432.44 60.78Z" fill="white"/>
<path d="M551.56 101.85C550.741 101.85 549.935 101.645 549.215 101.254C548.496 100.862 547.885 100.297 547.44 99.61L532 76L532.09 78.82C532.16 81.82 532.2 84.82 532.2 87.82V134.82C532.2 138.05 530.41 139.9 527.28 139.9C524.15 139.9 522.28 138.05 522.28 134.82V70.82C522.28 65.53 525.06 62.61 530.12 62.61C533.12 62.61 535.62 64.05 537.63 66.89L555.63 94.16C556.162 94.9644 556.451 95.9055 556.46 96.87C556.48 100 554.69 101.85 551.56 101.85Z" fill="white"/>
<path d="M586.13 67.7V132.07C586.13 137.13 583.46 139.91 578.61 139.91C577.148 139.925 575.708 139.553 574.436 138.831C573.164 138.109 572.106 137.063 571.37 135.8L553.23 108.27C552.649 107.482 552.337 106.529 552.34 105.55C552.34 102.39 554.15 100.55 557.34 100.55C558.165 100.564 558.974 100.785 559.692 101.192C560.41 101.599 561.014 102.179 561.45 102.88L576.49 126L576.4 123.41C576.26 120.46 576.19 117.51 576.19 114.66V67.7C576.19 64.47 578.01 62.62 581.19 62.62C584.37 62.62 586.13 64.47 586.13 67.7Z" fill="white"/>
<path d="M667.41 110C667.033 117.176 664.358 124.041 659.78 129.58C655.465 134.817 649.505 138.44 642.87 139.86C642.42 139.94 642.04 140 641.7 140.04L640.64 140.1C637.56 140.1 635.82 138.38 635.82 135.39C635.754 134.237 636.131 133.103 636.875 132.219C637.619 131.336 638.673 130.771 639.82 130.64C650.53 128.55 656.3 121.69 657.43 109.69C657.95 104.072 657.95 98.418 657.43 92.8C657.053 86.9906 654.563 81.52 650.43 77.42C646.316 73.5162 640.861 71.3399 635.19 71.3399C629.519 71.3399 624.064 73.5162 619.95 77.42C615.829 81.5285 613.342 86.9942 612.95 92.8C612.41 98.4137 612.41 104.066 612.95 109.68C614.09 121.68 619.85 128.55 630.57 130.68C631.717 130.806 632.772 131.369 633.517 132.251C634.261 133.133 634.638 134.268 634.57 135.42C634.57 138.42 632.83 140.13 629.8 140.13C629.5 140.13 629.13 140.13 628.7 140.07C628.27 140.01 627.96 139.97 627.56 139.9C620.889 138.501 614.893 134.872 610.56 129.61C606.002 124.053 603.352 117.178 603 110C602.55 104.175 602.55 98.3246 603 92.5C603.425 84.2207 606.965 76.4083 612.91 70.63C618.902 64.8802 626.885 61.6697 635.19 61.6697C643.495 61.6697 651.478 64.8802 657.47 70.63C663.42 76.4085 666.961 84.2262 667.38 92.51C667.849 98.3301 667.859 104.178 667.41 110Z" fill="white"/>
<path d="M1227 67.59C1227 70.75 1225.15 72.59 1221.92 72.59H1186.13V92.1C1186.13 95.33 1184.33 97.18 1181.21 97.18C1178.09 97.18 1176.21 95.33 1176.21 92.1V70.46C1176.21 65.46 1179.03 62.62 1184.21 62.62H1221.94C1225.11 62.62 1227 64.43 1227 67.59Z" fill="white"/>
<path d="M808.9 129.72C808.907 130.428 808.754 131.128 808.452 131.769C808.151 132.409 807.709 132.974 807.16 133.42C801.437 138.386 794.065 141.036 786.49 140.85C777.56 140.85 770.11 137.85 764.33 131.98C758.55 126.11 755.47 118.19 755.47 108.78V67.7C755.47 64.47 757.29 62.62 760.47 62.62C763.65 62.62 765.38 64.47 765.38 67.7V108.42C765.38 115.34 767.38 120.95 771.38 125.12C773.346 127.112 775.704 128.674 778.305 129.706C780.906 130.739 783.693 131.221 786.49 131.12C791.693 131.264 796.759 129.435 800.67 126C801.098 125.576 801.608 125.242 802.168 125.018C802.728 124.795 803.327 124.687 803.93 124.7C807.08 124.74 808.9 126.56 808.9 129.72Z" fill="white"/>
<path d="M1008.69 67.7V134.83C1008.69 138.06 1006.9 139.91 1003.77 139.91C1000.64 139.91 998.77 138.06 998.77 134.83V67.7C998.77 64.47 1000.58 62.62 1003.77 62.62C1006.96 62.62 1008.69 64.47 1008.69 67.7Z" fill="white"/>
<path d="M1227.17 134.94C1227.17 138.1 1225.32 139.94 1222.09 139.94H1184.15C1179.02 139.94 1176.15 137.16 1176.15 132.1V107.89C1176.13 106.332 1176.43 104.786 1177.03 103.347C1177.63 101.908 1178.51 100.606 1179.63 99.52C1180.71 98.4026 1182.01 97.5202 1183.44 96.9282C1184.88 96.3362 1186.42 96.0474 1187.97 96.08H1220.97C1224.16 96.08 1225.97 97.86 1225.97 100.95C1225.97 104.04 1224.14 105.95 1220.97 105.95H1188.03C1186.53 105.95 1186.03 106.47 1186.03 107.95V130H1222.03C1225.32 130 1227.17 131.81 1227.17 134.94Z" fill="white"/>
<path d="M1092.53 67.7V132.07C1092.53 137.13 1089.86 139.91 1085.01 139.91C1083.55 139.926 1082.11 139.554 1080.84 138.832C1079.56 138.11 1078.51 137.064 1077.77 135.8L1059.62 108.27C1059.05 107.479 1058.74 106.527 1058.73 105.55C1058.73 102.39 1060.54 100.55 1063.73 100.55C1064.56 100.568 1065.36 100.79 1066.08 101.197C1066.8 101.603 1067.41 102.182 1067.85 102.88L1082.89 126L1082.8 123.41C1082.66 120.46 1082.59 117.51 1082.59 114.66V67.7C1082.59 64.47 1084.4 62.62 1087.59 62.62C1090.78 62.62 1092.53 64.47 1092.53 67.7Z" fill="white"/>
<path d="M882 72.08C882 75.17 880.15 76.95 876.92 76.95C876.256 76.939 875.604 76.7675 875.02 76.45L873.73 75.67C871.588 74.3787 869.298 73.3512 866.91 72.61C864.235 71.7826 861.45 71.3613 858.65 71.36C852.79 71.36 848.45 72.59 845.72 75.03C843.51 77.03 842.43 79.74 842.43 83.3C842.43 86.41 843.35 88.7 845.24 90.3C847.31 92.04 851.24 93.61 856.79 94.95C857.913 95.1974 858.912 95.836 859.608 96.7519C860.305 97.6678 860.652 98.8013 860.59 99.95C860.652 100.674 860.547 101.403 860.281 102.079C860.016 102.756 859.598 103.362 859.06 103.85C858.228 104.479 857.202 104.798 856.16 104.75C855.507 104.745 854.857 104.672 854.22 104.53C839.65 101.23 832.28 94.14 832.28 83.46C832.28 76.81 834.74 71.46 839.62 67.46C844.34 63.61 850.62 61.65 858.39 61.65C867.61 61.65 874.93 63.8 880.14 68.04C880.741 68.5243 881.221 69.1409 881.544 69.8418C881.867 70.5427 882.023 71.3088 882 72.08V72.08Z" fill="white"/>
<path d="M888.83 119C888.903 122.126 888.212 125.222 886.818 128.02C885.424 130.819 883.369 133.235 880.83 135.06C875.76 138.89 869.12 140.84 861.1 140.84C855.602 140.854 850.136 140.007 844.9 138.33C840.736 137.092 836.854 135.054 833.47 132.33C832.863 131.851 832.38 131.233 832.061 130.528C831.743 129.823 831.598 129.052 831.64 128.28C831.64 125.22 833.49 123.47 836.71 123.47C837.895 123.547 839.029 123.983 839.96 124.72C842.646 126.691 845.626 128.226 848.79 129.27C852.694 130.534 856.776 131.166 860.88 131.14C866.8 131.14 871.41 129.86 874.59 127.33C875.891 126.368 876.941 125.107 877.653 123.654C878.365 122.2 878.717 120.598 878.68 118.98C878.76 117.626 878.542 116.271 878.043 115.01C877.544 113.749 876.775 112.612 875.79 111.68C873.65 109.74 869.79 108.1 864.31 106.8C863.176 106.553 862.167 105.908 861.468 104.982C860.769 104.055 860.426 102.908 860.5 101.75C860.443 101.026 860.552 100.298 860.818 99.6217C861.085 98.9458 861.503 98.3398 862.04 97.85C863.15 96.96 864.78 96.74 866.88 97.18C881.44 100.51 888.83 107.84 888.83 119Z" fill="white"/>
<path d="M746 65.52C746.237 66.1553 746.343 66.8322 746.31 67.5095C746.277 68.1869 746.107 68.8505 745.81 69.46L721.33 132.92C719.15 138.36 715.76 141.11 711.22 141.11C706.68 141.11 703.22 138.36 701.11 132.93L676.63 69.44C676.303 68.8381 676.117 68.1696 676.087 67.4851C676.056 66.8007 676.182 66.1183 676.455 65.4899C676.728 64.8614 677.14 64.3034 677.661 63.8581C678.182 63.4128 678.797 63.092 679.46 62.92C682.46 61.78 684.8 62.81 685.94 65.75L710.94 131.11C711.05 131.38 711.11 131.38 711.22 131.38C711.33 131.38 711.36 131.32 711.45 131.1L736.51 65.75C737.65 62.81 740 61.75 742.98 62.91C743.636 63.1143 744.242 63.4515 744.762 63.9006C745.281 64.3496 745.703 64.9009 746 65.52V65.52Z" fill="white"/>
<path d="M1165.26 67.59C1165.26 70.75 1163.4 72.59 1160.18 72.59H1139.36V134.86C1139.36 138.09 1137.55 139.94 1134.36 139.94C1131.17 139.94 1129.44 138.09 1129.44 134.86V72.56H1108.44C1105.22 72.56 1103.37 70.75 1103.37 67.56C1103.37 64.37 1105.22 62.56 1108.44 62.56H1160.18C1163.4 62.62 1165.26 64.43 1165.26 67.59Z" fill="white"/>
<path d="M942.75 98.21C944.088 97.7317 945.499 97.4914 946.92 97.5H978.77C981.99 97.5 983.84 99.31 983.84 102.5C983.84 105.69 981.99 107.41 978.77 107.41H946.92C945.43 107.41 944.92 107.94 944.92 109.41V134.83C944.92 138.06 943.13 139.91 940.01 139.91C936.89 139.91 935.01 138.06 935.01 134.83V109.41C934.989 107.841 935.288 106.283 935.89 104.834C936.492 103.384 937.384 102.073 938.51 100.98C939.452 100.024 940.547 99.2334 941.75 98.64C941.178 98.8028 940.585 98.8803 939.99 98.87C936.82 98.87 934.99 97.02 934.99 93.8V70.46C934.99 65.46 937.81 62.62 942.99 62.62H980.74C983.96 62.62 985.81 64.43 985.81 67.62C985.81 70.81 983.96 72.62 980.74 72.62H944.89V93.8C944.97 94.6604 944.813 95.5264 944.436 96.3038C944.059 97.0813 943.475 97.7405 942.75 98.21V98.21Z" fill="white"/>
<path d="M817.57 67.7V108.78C817.625 113.689 816.648 118.554 814.7 123.06C814.369 123.993 813.747 124.794 812.926 125.347C812.105 125.9 811.129 126.174 810.14 126.13C806.98 126.13 805.14 124.32 805.14 121.13C805.135 120.539 805.227 119.952 805.41 119.39C806.914 115.921 807.661 112.171 807.6 108.39V67.7C807.6 64.47 809.41 62.62 812.6 62.62C815.79 62.62 817.57 64.47 817.57 67.7Z" fill="white"/>
<path d="M1058 101.85C1057.18 101.85 1056.37 101.645 1055.65 101.254C1054.93 100.862 1054.32 100.298 1053.87 99.61L1038.41 76L1038.5 78.82C1038.57 81.82 1038.61 84.82 1038.61 87.82V134.82C1038.61 138.05 1036.81 139.9 1033.68 139.9C1030.55 139.9 1028.68 138.05 1028.68 134.82V70.82C1028.68 65.53 1031.46 62.61 1036.52 62.61C1039.52 62.61 1042.02 64.05 1044.03 66.89L1062.03 94.16C1062.56 94.9656 1062.85 95.9059 1062.86 96.87C1062.88 100 1061.09 101.85 1058 101.85Z" fill="white"/>
<path d="M1239.94 95.73C1239.64 86.8532 1242.88 78.2206 1248.94 71.73C1251.91 68.4932 1255.54 65.9272 1259.58 64.2028C1263.62 62.4785 1267.99 61.6355 1272.38 61.73C1286.03 61.73 1295.38 68.04 1300.23 80.46C1300.5 81.1136 1300.64 81.8132 1300.64 82.52C1300.64 85.52 1298.88 87.23 1295.82 87.23C1294.8 87.2543 1293.81 86.9583 1292.97 86.384C1292.13 85.8096 1291.49 84.9861 1291.15 84.03C1287.64 75.54 1281.49 71.41 1272.38 71.41C1269.34 71.3098 1266.31 71.8919 1263.52 73.1136C1260.74 74.3352 1258.26 76.1654 1256.27 78.47C1252.17 83.06 1250 89 1249.84 96.12C1249.84 99.25 1248.05 101.06 1244.92 101.06C1241.79 101.06 1239.94 99.09 1239.94 95.73Z" fill="white"/>
<path d="M1300.63 120.11C1300.62 120.797 1300.48 121.476 1300.22 122.11C1295.39 134.52 1286.02 140.83 1272.37 140.83C1267.98 140.925 1263.61 140.082 1259.57 138.357C1255.53 136.633 1251.9 134.067 1248.93 130.83C1245.93 127.617 1243.59 123.843 1242.04 119.725C1240.5 115.607 1239.78 111.225 1239.93 106.83C1239.93 103.5 1241.74 101.57 1244.93 101.57C1248.12 101.57 1249.85 103.38 1249.85 106.57C1250.01 113.66 1252.18 119.57 1256.28 124.19C1258.28 126.481 1260.76 128.299 1263.54 129.51C1266.33 130.721 1269.35 131.295 1272.39 131.19C1281.5 131.19 1287.65 127.06 1291.16 118.58C1291.51 117.626 1292.14 116.804 1292.98 116.232C1293.82 115.659 1294.82 115.365 1295.83 115.39C1298.87 115.35 1300.63 117.09 1300.63 120.11Z" fill="white"/>
<path d="M1325.58 67.7V134.83C1325.58 138.06 1323.79 139.91 1320.66 139.91C1317.53 139.91 1315.66 138.06 1315.66 134.83V67.7C1315.66 64.47 1317.47 62.62 1320.66 62.62C1323.85 62.62 1325.58 64.47 1325.58 67.7Z" fill="white"/>
<path d="M1377.68 67.7V134.83C1377.68 138.06 1375.87 139.91 1372.68 139.91C1369.49 139.91 1367.68 138.06 1367.68 134.83V106.24H1331.1C1327.91 106.24 1326.1 104.43 1326.1 101.24C1326.1 98.05 1327.93 96.33 1331.1 96.33H1367.74V67.7C1367.74 64.47 1369.55 62.62 1372.74 62.62C1375.93 62.62 1377.68 64.47 1377.68 67.7Z" fill="white"/>
<path d="M547.09 243.71C545.51 243.782 543.952 243.317 542.67 242.39C541.409 241.336 540.467 239.95 539.95 238.39L522.78 190.11C522.399 189.223 522.242 188.255 522.322 187.293C522.402 186.33 522.717 185.402 523.24 184.59C524.287 183.057 526.117 182.29 528.73 182.29C530.239 182.196 531.73 182.65 532.93 183.57C534.076 184.668 534.913 186.047 535.36 187.57L549.36 229.31H545.71L560.5 187.66C561.002 186.146 561.86 184.775 563 183.66C564.118 182.729 565.548 182.257 567 182.34C568.396 182.273 569.763 182.746 570.82 183.66C571.957 184.819 572.803 186.231 573.29 187.78L587.4 229.35H584.25L598.53 187.61C598.938 186.082 599.762 184.697 600.91 183.61C602.092 182.676 603.575 182.206 605.08 182.29C606.017 182.219 606.957 182.394 607.805 182.797C608.654 183.201 609.383 183.819 609.92 184.59C610.428 185.411 610.724 186.344 610.784 187.307C610.843 188.27 610.663 189.233 610.26 190.11L592.9 238.44C592.429 239.966 591.546 241.332 590.35 242.39C589.076 243.332 587.512 243.799 585.93 243.71C584.376 243.792 582.843 243.325 581.6 242.39C580.383 241.312 579.472 239.933 578.96 238.39L565.53 200.39H567.53L554 238.44C553.481 239.953 552.591 241.311 551.41 242.39C550.175 243.335 548.642 243.803 547.09 243.71V243.71Z" fill="white"/>
<path d="M627 242.94C626.071 243.045 625.129 242.939 624.247 242.631C623.364 242.322 622.561 241.819 621.9 241.158C621.238 240.497 620.733 239.695 620.423 238.813C620.114 237.93 620.006 236.99 620.11 236.06V189.9C620.003 188.969 620.108 188.026 620.416 187.141C620.725 186.256 621.229 185.452 621.891 184.788C622.553 184.125 623.356 183.62 624.241 183.31C625.126 183.001 626.069 182.895 627 183H656.66C657.36 182.95 658.062 183.041 658.727 183.266C659.391 183.49 660.004 183.846 660.53 184.31C660.994 184.82 661.35 185.419 661.577 186.07C661.804 186.722 661.897 187.412 661.85 188.1C661.94 188.803 661.868 189.516 661.639 190.187C661.409 190.857 661.03 191.465 660.528 191.966C660.027 192.466 659.418 192.845 658.747 193.073C658.076 193.3 657.362 193.371 656.66 193.28H632.66V207.28H654.66C655.372 207.225 656.089 207.312 656.767 207.537C657.445 207.762 658.072 208.12 658.61 208.59C659.466 209.698 659.931 211.059 659.931 212.46C659.931 213.861 659.466 215.222 658.61 216.33C658.073 216.802 657.446 217.162 656.768 217.389C656.09 217.615 655.373 217.704 654.66 217.65H632.66V232.65H656.66C657.36 232.598 658.063 232.687 658.728 232.912C659.393 233.137 660.006 233.494 660.53 233.96C660.994 234.47 661.35 235.069 661.577 235.72C661.804 236.372 661.897 237.062 661.85 237.75C661.94 238.453 661.868 239.166 661.639 239.837C661.409 240.507 661.03 241.115 660.528 241.616C660.027 242.116 659.418 242.495 658.747 242.723C658.076 242.95 657.362 243.021 656.66 242.93L627 242.94Z" fill="white"/>
<path d="M701.87 243.71C700.969 243.771 700.065 243.643 699.216 243.335C698.367 243.027 697.592 242.545 696.94 241.92C695.742 240.539 695.132 238.745 695.24 236.92V189.05C695.132 187.225 695.742 185.431 696.94 184.05C697.592 183.425 698.367 182.943 699.216 182.635C700.065 182.327 700.969 182.199 701.87 182.26C702.757 182.203 703.646 182.333 704.48 182.641C705.314 182.95 706.073 183.429 706.71 184.05C707.908 185.431 708.518 187.225 708.41 189.05V236.91C708.52 238.726 707.93 240.516 706.76 241.91C706.118 242.538 705.35 243.023 704.507 243.333C703.665 243.643 702.766 243.772 701.87 243.71V243.71Z" fill="white"/>
<path d="M726.6 243.71C725.769 243.763 724.937 243.643 724.155 243.357C723.374 243.072 722.66 242.626 722.06 242.05C720.937 240.743 720.37 239.049 720.48 237.33V188.88C720.357 187.095 720.923 185.331 722.06 183.95C722.597 183.382 723.25 182.936 723.975 182.643C724.7 182.35 725.479 182.216 726.26 182.25C727.5 182.174 728.734 182.485 729.79 183.14C730.861 183.995 731.819 184.983 732.64 186.08L762.47 224.08H760.18V188.54C760.075 186.85 760.639 185.188 761.75 183.91C763.024 182.839 764.635 182.251 766.3 182.251C767.965 182.251 769.576 182.839 770.85 183.91C771.957 185.19 772.52 186.851 772.42 188.54V237.54C772.508 239.158 771.991 240.752 770.97 242.01C770.483 242.561 769.879 242.996 769.203 243.283C768.526 243.57 767.794 243.702 767.06 243.67C765.735 243.733 764.421 243.406 763.28 242.73C762.134 241.888 761.123 240.876 760.28 239.73L730.53 201.73H732.74V237.26C732.851 238.971 732.303 240.659 731.21 241.98C730.608 242.578 729.885 243.041 729.091 243.34C728.296 243.638 727.447 243.764 726.6 243.71Z" fill="white"/>
<path d="M790.61 243.71C789.778 243.765 788.943 243.645 788.16 243.36C787.377 243.074 786.661 242.628 786.06 242.05C784.941 240.742 784.378 239.048 784.49 237.33V188.88C784.365 187.096 784.926 185.333 786.06 183.95C786.599 183.382 787.254 182.936 787.98 182.643C788.707 182.349 789.488 182.215 790.27 182.25C791.51 182.174 792.744 182.485 793.8 183.14C794.87 183.993 795.825 184.981 796.64 186.08L826.48 224.08H824.18V188.54C824.078 186.849 824.646 185.186 825.76 183.91C827.032 182.838 828.642 182.249 830.305 182.249C831.968 182.249 833.578 182.838 834.85 183.91C835.961 185.188 836.525 186.85 836.42 188.54V237.54C836.506 239.156 835.993 240.748 834.98 242.01C834.49 242.557 833.886 242.989 833.21 243.276C832.534 243.563 831.804 243.697 831.07 243.67C829.745 243.736 828.43 243.409 827.29 242.73C826.14 241.893 825.127 240.88 824.29 239.73L794.54 201.73H796.75V237.26C796.861 238.971 796.313 240.659 795.22 241.98C794.618 242.578 793.895 243.041 793.101 243.34C792.306 243.638 791.457 243.764 790.61 243.71Z" fill="white"/>
<path d="M876.29 243.88C870.863 243.996 865.504 242.657 860.77 240C856.353 237.449 852.758 233.688 850.41 229.16C847.854 224.139 846.583 218.563 846.71 212.93C846.645 208.604 847.349 204.3 848.79 200.22C850.088 196.605 852.132 193.303 854.79 190.53C857.446 187.805 860.65 185.675 864.19 184.28C868.047 182.77 872.159 182.02 876.3 182.07C881.761 181.936 887.159 183.258 891.94 185.9C896.337 188.426 899.921 192.156 902.27 196.65C904.837 201.657 906.119 207.224 906 212.85C906.059 217.192 905.341 221.51 903.88 225.6C902.572 229.237 900.53 232.566 897.88 235.38C895.247 238.118 892.059 240.263 888.53 241.67C884.633 243.198 880.475 243.949 876.29 243.88V243.88ZM876.29 232.66C879.29 232.813 882.262 232.011 884.778 230.369C887.293 228.727 889.223 226.329 890.29 223.52C891.634 220.158 892.283 216.559 892.2 212.94C892.2 206.7 890.813 201.867 888.04 198.44C885.267 195.013 881.357 193.3 876.31 193.3C873.313 193.221 870.358 194.021 867.81 195.6C865.348 197.222 863.448 199.566 862.37 202.31C861.042 205.693 860.406 209.307 860.5 212.94C860.5 219.113 861.887 223.943 864.66 227.43C867.433 230.917 871.31 232.66 876.29 232.66V232.66Z" fill="white"/>
<path d="M939.44 243.71C937.86 243.773 936.3 243.34 934.98 242.47C933.701 241.496 932.715 240.188 932.13 238.69L910.71 191.09C909.96 189.699 909.719 188.09 910.03 186.54C910.33 185.267 911.088 184.149 912.16 183.4C913.416 182.62 914.872 182.221 916.35 182.251C917.828 182.282 919.266 182.74 920.49 183.57C921.637 184.638 922.511 185.965 923.04 187.44L941.82 230.87H937.57L956.36 187.35C956.925 185.888 957.826 184.58 958.99 183.53C960.211 182.615 961.717 182.161 963.24 182.25C964.594 182.196 965.926 182.601 967.02 183.4C968.017 184.173 968.685 185.295 968.89 186.54C969.119 188.095 968.867 189.682 968.17 191.09L946.75 238.69C946.13 240.168 945.151 241.468 943.9 242.47C942.587 243.356 941.022 243.791 939.44 243.71Z" fill="white"/>
<path d="M972.68 243.71C971.303 243.773 969.944 243.383 968.81 242.6C967.825 241.876 967.156 240.803 966.94 239.6C966.708 238.169 966.962 236.701 967.66 235.43L989.42 187.75C990.115 186.091 991.228 184.641 992.65 183.54C993.932 182.68 995.441 182.22 996.985 182.22C998.529 182.22 1000.04 182.68 1001.32 183.54C1002.73 184.631 1003.82 186.086 1004.47 187.75L1026.4 235.43C1027.09 236.719 1027.37 238.188 1027.2 239.64C1027.13 240.233 1026.94 240.805 1026.64 241.321C1026.34 241.838 1025.94 242.286 1025.46 242.64C1024.36 243.393 1023.05 243.768 1021.72 243.71C1020.12 243.811 1018.53 243.328 1017.26 242.35C1016.03 241.163 1015.08 239.709 1014.5 238.1L1009.4 226.28L1014.67 229.94H979.22L984.49 226.28L979.49 238.1C978.886 239.692 977.976 241.149 976.81 242.39C975.655 243.346 974.175 243.819 972.68 243.71V243.71ZM996.82 197L985.94 223L983.64 219.68H1010.25L1008 223L997 197H996.82Z" fill="white"/>
<path d="M1049.18 243.71C1048.28 243.772 1047.37 243.644 1046.53 243.336C1045.68 243.028 1044.9 242.545 1044.25 241.92C1043.05 240.539 1042.44 238.745 1042.55 236.92V193.92H1027.55C1026.81 193.968 1026.06 193.864 1025.36 193.615C1024.66 193.366 1024.02 192.976 1023.47 192.47C1022.55 191.341 1022.04 189.928 1022.04 188.47C1022.04 187.012 1022.55 185.599 1023.47 184.47C1024.02 183.978 1024.67 183.6 1025.37 183.36C1026.07 183.119 1026.81 183.021 1027.55 183.07H1070.82C1071.56 183.023 1072.3 183.123 1073 183.363C1073.7 183.603 1074.35 183.979 1074.9 184.47C1075.82 185.599 1076.33 187.012 1076.33 188.47C1076.33 189.928 1075.82 191.341 1074.9 192.47C1074.35 192.975 1073.71 193.363 1073.01 193.613C1072.31 193.862 1071.56 193.966 1070.82 193.92H1055.82V236.92C1055.93 238.738 1055.34 240.53 1054.16 241.92C1053.51 242.56 1052.73 243.051 1051.87 243.36C1051.01 243.669 1050.09 243.789 1049.18 243.71V243.71Z" fill="white"/>
<path d="M1088.87 242.94C1087.94 243.047 1087 242.943 1086.12 242.635C1085.23 242.327 1084.43 241.824 1083.77 241.162C1083.11 240.5 1082.6 239.698 1082.3 238.814C1081.99 237.931 1081.88 236.989 1081.99 236.06V189.9C1081.88 188.971 1081.99 188.029 1082.3 187.146C1082.6 186.262 1083.11 185.46 1083.77 184.798C1084.43 184.137 1085.23 183.633 1086.12 183.325C1087 183.017 1087.94 182.913 1088.87 183.02H1118.54C1119.24 182.971 1119.94 183.061 1120.6 183.286C1121.26 183.511 1121.88 183.866 1122.4 184.33C1122.86 184.84 1123.22 185.439 1123.45 186.09C1123.67 186.742 1123.77 187.432 1123.72 188.12C1123.81 188.822 1123.74 189.534 1123.51 190.204C1123.28 190.873 1122.9 191.481 1122.4 191.981C1121.9 192.481 1121.29 192.86 1120.62 193.089C1119.95 193.318 1119.24 193.39 1118.54 193.3H1094.54V207.3H1116.54C1117.26 207.237 1117.99 207.32 1118.67 207.545C1119.36 207.77 1120 208.133 1120.54 208.61C1121.4 209.718 1121.86 211.079 1121.86 212.48C1121.86 213.881 1121.4 215.242 1120.54 216.35C1120 216.829 1119.36 217.193 1118.68 217.42C1117.99 217.647 1117.26 217.732 1116.54 217.67H1094.54V232.67H1118.54C1119.24 232.618 1119.94 232.708 1120.6 232.933C1121.27 233.158 1121.88 233.514 1122.4 233.98C1122.86 234.49 1123.22 235.089 1123.45 235.74C1123.67 236.392 1123.77 237.082 1123.72 237.77C1123.81 238.472 1123.74 239.184 1123.51 239.854C1123.28 240.523 1122.9 241.131 1122.4 241.631C1121.9 242.131 1121.29 242.51 1120.62 242.739C1119.95 242.968 1119.24 243.04 1118.54 242.95L1088.87 242.94Z" fill="white"/>
</svg>
