<svg width="370" height="112" viewBox="0 0 370 112" fill="none" xmlns="http://www.w3.org/2000/svg">
<rect width="370" height="112" fill="#13161F"/>
<g clip-path="url(#clip0_5481_6480)">
<path d="M52.6123 49.927H56.206V52.5791H52.6123V49.927ZM52.7772 54.6197H56.0467V68.6234H52.7772V54.6197Z" fill="white"/>
<path d="M62.046 56.4259C62.569 55.763 63.2387 55.2319 64.0017 54.8747C64.7647 54.5175 65.6 54.3441 66.4414 54.3682V56.7345C64.0191 56.7345 62.4611 57.8091 62.4269 60.6556V68.6234H59.1631V54.6197H61.4774L62.046 56.4259Z" fill="white"/>
<path d="M68.3067 59.3009C68.3067 55.5456 71.2465 54.3682 73.8507 54.3682C76.455 54.3682 79.4175 55.5113 79.4175 59.3009V62.5989H71.582V63.4392C71.582 65.8169 72.5088 66.4685 73.8564 66.4743C75.0448 66.4743 76.0456 65.937 76.1309 64.0165H79.3834C79.3379 67.726 76.3981 68.8463 73.8223 68.8463C71.2465 68.8463 68.2783 67.7032 68.2783 63.9193L68.3067 59.3009ZM76.1423 59.6039C76.1423 57.3575 75.0676 56.7459 73.8678 56.7459C72.668 56.7459 71.5933 57.3175 71.5933 59.6039V60.6384H76.1423V59.6039Z" fill="white"/>
<path d="M84.9553 64.6166C85.0121 65.9998 86.1437 66.4685 87.2297 66.4685C88.5432 66.4685 89.5042 65.9827 89.5042 64.7081C89.5042 63.1705 88.3669 62.6332 86.4905 62.2903C84.3184 61.9702 81.9416 60.9013 81.9416 58.415C81.9416 55.5571 84.3412 54.3682 87.2183 54.3682C89.9704 54.3682 92.4667 55.7514 92.5406 58.5064V58.7693H89.2824V58.5407C89.2028 57.2032 88.2191 56.7459 87.2297 56.7459C86.0925 56.7459 85.1941 57.1289 85.1941 58.2492C85.1941 59.3695 86.5246 59.8496 87.5368 60.0611C91.699 60.7699 92.8021 62.5246 92.8021 64.5823C92.8021 67.5946 90.3628 68.8635 87.2468 68.8635C84.58 68.8635 81.754 67.5317 81.6914 64.7024V64.308H84.9609L84.9553 64.6166Z" fill="white"/>
<path d="M98.1588 64.6166C98.2156 65.9999 99.3415 66.4686 100.433 66.4686C101.747 66.4686 102.708 65.9827 102.708 64.7081C102.708 63.1705 101.57 62.6332 99.6997 62.2903C97.5276 61.9702 95.1508 60.9013 95.1508 58.415C95.1508 55.5571 97.5447 54.3682 100.428 54.3682C103.18 54.3682 105.67 55.7514 105.75 58.5064V58.7693H102.492V58.5407C102.412 57.2032 101.423 56.7459 100.433 56.7459C99.296 56.7459 98.3976 57.1289 98.3976 58.2492C98.3976 59.3695 99.7282 59.8496 100.74 60.0611C104.851 60.7699 105.949 62.5246 105.949 64.5652C105.949 67.5774 103.515 68.8463 100.399 68.8463C97.7266 68.8463 94.9006 67.5145 94.8438 64.6852V64.2908H98.1076L98.1588 64.6166Z" fill="white"/>
<path d="M45.2548 88L24 63.7649L66.3163 24L72.3721 51.4588L69.5973 52.0818L64.6219 29.51L27.9576 63.9593L46.3125 84.8849L75.3744 79.3005L74.5101 71.87L77.3361 71.5384L78.5018 81.6097L45.2548 88Z" fill="#21F5A8"/>
</g>
<path d="M125.355 66.7441L128.188 54.7812H129.77L130.131 56.7734L127.113 69H125.414L125.355 66.7441ZM123.9 54.7812L126.244 66.7441L126.049 69H124.154L121 54.7812H123.9ZM132.621 66.6953L134.936 54.7812H137.836L134.691 69H132.797L132.621 66.6953ZM130.658 54.7812L133.51 66.793L133.432 69H131.732L128.695 56.7637L129.086 54.7812H130.658Z" fill="white"/>
<path d="M148.969 66.7148V69H141.4V66.7148H148.969ZM142.357 54.7812V69H139.428V54.7812H142.357ZM147.982 60.5723V62.7988H141.4V60.5723H147.982ZM148.959 54.7812V57.0762H141.4V54.7812H148.959Z" fill="white"/>
<path d="M156.459 57.2129L152.592 69H149.477L154.76 54.7812H156.742L156.459 57.2129ZM159.672 69L155.795 57.2129L155.482 54.7812H157.484L162.797 69H159.672ZM159.496 63.707V66.002H151.986V63.707H159.496Z" fill="white"/>
<path d="M173.256 66.7148V69H166.098V66.7148H173.256ZM167.045 54.7812V69H164.115V54.7812H167.045Z" fill="white"/>
<path d="M179.066 54.7812V69H176.146V54.7812H179.066ZM183.441 54.7812V57.0762H171.84V54.7812H183.441Z" fill="white"/>
<path d="M194.594 60.5723V62.8574H187.172V60.5723H194.594ZM188.041 54.7812V69H185.111V54.7812H188.041ZM196.684 54.7812V69H193.764V54.7812H196.684Z" fill="white"/>
<path d="M209.994 57.2129L206.127 69H203.012L208.295 54.7812H210.277L209.994 57.2129ZM213.207 69L209.33 57.2129L209.018 54.7812H211.02L216.332 69H213.207ZM213.031 63.707V66.002H205.521V63.707H213.031Z" fill="white"/>
<path d="M223.188 63.9316H219.564V61.6465H223.188C223.747 61.6465 224.203 61.5553 224.555 61.373C224.906 61.1842 225.163 60.9238 225.326 60.5918C225.489 60.2598 225.57 59.8854 225.57 59.4688C225.57 59.0456 225.489 58.6517 225.326 58.2871C225.163 57.9225 224.906 57.6296 224.555 57.4082C224.203 57.1868 223.747 57.0762 223.188 57.0762H220.58V69H217.65V54.7812H223.188C224.301 54.7812 225.255 54.9831 226.049 55.3867C226.85 55.7839 227.462 56.334 227.885 57.0371C228.308 57.7402 228.52 58.5443 228.52 59.4492C228.52 60.3672 228.308 61.1615 227.885 61.832C227.462 62.5026 226.85 63.0202 226.049 63.3848C225.255 63.7493 224.301 63.9316 223.188 63.9316Z" fill="white"/>
<path d="M236.078 63.9316H232.455V61.6465H236.078C236.638 61.6465 237.094 61.5553 237.445 61.373C237.797 61.1842 238.054 60.9238 238.217 60.5918C238.38 60.2598 238.461 59.8854 238.461 59.4688C238.461 59.0456 238.38 58.6517 238.217 58.2871C238.054 57.9225 237.797 57.6296 237.445 57.4082C237.094 57.1868 236.638 57.0762 236.078 57.0762H233.471V69H230.541V54.7812H236.078C237.191 54.7812 238.145 54.9831 238.939 55.3867C239.74 55.7839 240.352 56.334 240.775 57.0371C241.199 57.7402 241.41 58.5443 241.41 59.4492C241.41 60.3672 241.199 61.1615 240.775 61.832C240.352 62.5026 239.74 63.0202 238.939 63.3848C238.145 63.7493 237.191 63.9316 236.078 63.9316Z" fill="white"/>
<path d="M254.193 57.2129L250.326 69H247.211L252.494 54.7812H254.477L254.193 57.2129ZM257.406 69L253.529 57.2129L253.217 54.7812H255.219L260.531 69H257.406ZM257.23 63.707V66.002H249.721V63.707H257.23Z" fill="white"/>
<path d="M266.215 69H263.119L263.139 66.7148H266.215C266.983 66.7148 267.631 66.5423 268.158 66.1973C268.686 65.8457 269.083 65.3346 269.35 64.6641C269.623 63.9935 269.76 63.1829 269.76 62.2324V61.5391C269.76 60.8099 269.682 60.1686 269.525 59.6152C269.376 59.0618 269.151 58.5964 268.852 58.2188C268.552 57.8411 268.184 57.5579 267.748 57.3691C267.312 57.1738 266.811 57.0762 266.244 57.0762H263.061V54.7812H266.244C267.195 54.7812 268.064 54.944 268.852 55.2695C269.646 55.5885 270.333 56.0475 270.912 56.6465C271.492 57.2454 271.938 57.9616 272.25 58.7949C272.569 59.6217 272.729 60.543 272.729 61.5586V62.2324C272.729 63.2415 272.569 64.1628 272.25 64.9961C271.938 65.8294 271.492 66.5456 270.912 67.1445C270.339 67.737 269.652 68.196 268.852 68.5215C268.057 68.8405 267.178 69 266.215 69ZM264.779 54.7812V69H261.85V54.7812H264.779Z" fill="white"/>
<path d="M276.195 54.7812H278.676L282.328 65.2207L285.98 54.7812H288.461L283.324 69H281.332L276.195 54.7812ZM274.857 54.7812H277.328L277.777 64.957V69H274.857V54.7812ZM287.328 54.7812H289.809V69H286.879V64.957L287.328 54.7812Z" fill="white"/>
<path d="M295.492 54.7812V69H292.572V54.7812H295.492Z" fill="white"/>
<path d="M309.809 54.7812V69H306.879L301.166 59.4688V69H298.236V54.7812H301.166L306.889 64.3223V54.7812H309.809Z" fill="white"/>
<defs>
<clipPath id="clip0_5481_6480">
<rect width="82" height="64" fill="white" transform="translate(24 24)"/>
</clipPath>
</defs>
</svg>
