<svg width="82" height="64" viewBox="0 0 82 64" fill="none" xmlns="http://www.w3.org/2000/svg">
<g clip-path="url(#clip0_1119_2694)">
<path d="M28.6128 25.927H32.2064V28.5791H28.6128V25.927ZM28.7777 30.6197H32.0472V44.6234H28.7777V30.6197Z" fill="white"/>
<path d="M38.046 32.4259C38.569 31.763 39.2387 31.2319 40.0017 30.8747C40.7647 30.5175 41.6 30.3441 42.4414 30.3682V32.7345C40.0191 32.7345 38.4611 33.8091 38.4269 36.6556V44.6234H35.1631V30.6197H37.4774L38.046 32.4259Z" fill="white"/>
<path d="M44.3065 35.3009C44.3065 31.5456 47.2462 30.3682 49.8505 30.3682C52.4548 30.3682 55.4172 31.5113 55.4172 35.3009V38.5989H47.5817V39.4392C47.5817 41.8169 48.5086 42.4685 49.8562 42.4743C51.0446 42.4743 52.0454 41.937 52.1306 40.0165H55.3831C55.3376 43.726 52.3979 44.8463 49.8221 44.8463C47.2462 44.8463 44.2781 43.7032 44.2781 39.9193L44.3065 35.3009ZM52.142 35.6039C52.142 33.3575 51.0673 32.7459 49.8676 32.7459C48.6678 32.7459 47.5931 33.3175 47.5931 35.6039V36.6384H52.142V35.6039Z" fill="white"/>
<path d="M60.9555 40.6166C61.0124 41.9998 62.1439 42.4685 63.23 42.4685C64.5435 42.4685 65.5044 41.9827 65.5044 40.7081C65.5044 39.1705 64.3672 38.6332 62.4908 38.2903C60.3187 37.9702 57.9418 36.9013 57.9418 34.415C57.9418 31.5571 60.3414 30.3682 63.2186 30.3682C65.9707 30.3682 68.4669 31.7514 68.5408 34.5064V34.7693H65.2827V34.5407C65.2031 33.2032 64.2194 32.7459 63.23 32.7459C62.0927 32.7459 61.1943 33.1289 61.1943 34.2492C61.1943 35.3695 62.5249 35.8496 63.537 36.0611C67.6993 36.7699 68.8024 38.5246 68.8024 40.5823C68.8024 43.5946 66.363 44.8635 63.247 44.8635C60.5802 44.8635 57.7542 43.5317 57.6917 40.7024V40.308H60.9612L60.9555 40.6166Z" fill="white"/>
<path d="M74.1588 40.6166C74.2156 41.9999 75.3415 42.4686 76.4332 42.4686C77.7467 42.4686 78.7077 41.9827 78.7077 40.7081C78.7077 39.1705 77.5705 38.6332 75.6997 38.2903C73.5276 37.9702 71.1508 36.9013 71.1508 34.415C71.1508 31.5571 73.5447 30.3682 76.4276 30.3682C79.1797 30.3682 81.6702 31.7514 81.7498 34.5064V34.7693H78.4916V34.5407C78.412 33.2032 77.4226 32.7459 76.4332 32.7459C75.296 32.7459 74.3976 33.1289 74.3976 34.2492C74.3976 35.3695 75.7282 35.8496 76.7403 36.0611C80.8514 36.7699 81.9488 38.5246 81.9488 40.5652C81.9488 43.5774 79.5151 44.8463 76.3991 44.8463C73.7266 44.8463 70.9006 43.5145 70.8438 40.6852V40.2908H74.1076L74.1588 40.6166Z" fill="white"/>
<path d="M21.2548 64L0 39.7649L42.3163 0L48.3721 27.4588L45.5973 28.0818L40.6219 5.51005L3.95756 39.9593L22.3125 60.8849L51.3744 55.3005L50.5101 47.87L53.3361 47.5384L54.5018 57.6097L21.2548 64Z" fill="#21F5A8"/>
</g>
<defs>
<clipPath id="clip0_1119_2694">
<rect width="82" height="64" fill="white"/>
</clipPath>
</defs>
</svg>
