<svg width="370" height="112" viewBox="0 0 370 112" fill="none" xmlns="http://www.w3.org/2000/svg">
<rect width="370" height="112" fill="#F2F8FF"/>
<g clip-path="url(#clip0_1119_2693)">
<path d="M52.6128 49.927H56.2064V52.5791H52.6128V49.927ZM52.7777 54.6197H56.0472V68.6234H52.7777V54.6197Z" fill="black"/>
<path d="M62.046 56.4259C62.569 55.763 63.2387 55.2319 64.0017 54.8747C64.7647 54.5175 65.6 54.3441 66.4414 54.3682V56.7345C64.0191 56.7345 62.4611 57.8091 62.4269 60.6556V68.6234H59.1631V54.6197H61.4774L62.046 56.4259Z" fill="black"/>
<path d="M68.3065 59.3009C68.3065 55.5456 71.2462 54.3682 73.8505 54.3682C76.4548 54.3682 79.4172 55.5113 79.4172 59.3009V62.5989H71.5817V63.4392C71.5817 65.8169 72.5086 66.4685 73.8562 66.4743C75.0446 66.4743 76.0454 65.937 76.1306 64.0165H79.3831C79.3376 67.726 76.3979 68.8463 73.8221 68.8463C71.2462 68.8463 68.2781 67.7032 68.2781 63.9193L68.3065 59.3009ZM76.142 59.6039C76.142 57.3575 75.0673 56.7459 73.8676 56.7459C72.6678 56.7459 71.5931 57.3175 71.5931 59.6039V60.6384H76.142V59.6039Z" fill="black"/>
<path d="M84.9555 64.6166C85.0124 65.9998 86.1439 66.4685 87.23 66.4685C88.5435 66.4685 89.5044 65.9827 89.5044 64.7081C89.5044 63.1705 88.3672 62.6332 86.4908 62.2903C84.3187 61.9702 81.9418 60.9013 81.9418 58.415C81.9418 55.5571 84.3414 54.3682 87.2186 54.3682C89.9707 54.3682 92.4669 55.7514 92.5408 58.5064V58.7693H89.2827V58.5407C89.2031 57.2032 88.2194 56.7459 87.23 56.7459C86.0927 56.7459 85.1943 57.1289 85.1943 58.2492C85.1943 59.3695 86.5249 59.8496 87.537 60.0611C91.6993 60.7699 92.8024 62.5246 92.8024 64.5823C92.8024 67.5946 90.363 68.8635 87.247 68.8635C84.5802 68.8635 81.7542 67.5317 81.6917 64.7024V64.308H84.9612L84.9555 64.6166Z" fill="black"/>
<path d="M98.1588 64.6166C98.2156 65.9999 99.3415 66.4686 100.433 66.4686C101.747 66.4686 102.708 65.9827 102.708 64.7081C102.708 63.1705 101.57 62.6332 99.6997 62.2903C97.5276 61.9702 95.1508 60.9013 95.1508 58.415C95.1508 55.5571 97.5447 54.3682 100.428 54.3682C103.18 54.3682 105.67 55.7514 105.75 58.5064V58.7693H102.492V58.5407C102.412 57.2032 101.423 56.7459 100.433 56.7459C99.296 56.7459 98.3976 57.1289 98.3976 58.2492C98.3976 59.3695 99.7282 59.8496 100.74 60.0611C104.851 60.7699 105.949 62.5246 105.949 64.5652C105.949 67.5774 103.515 68.8463 100.399 68.8463C97.7266 68.8463 94.9006 67.5145 94.8438 64.6852V64.2908H98.1076L98.1588 64.6166Z" fill="black"/>
<path d="M45.2548 88L24 63.7649L66.3163 24L72.3721 51.4588L69.5973 52.0818L64.6219 29.51L27.9576 63.9593L46.3125 84.8849L75.3744 79.3005L74.5101 71.87L77.3361 71.5384L78.5018 81.6097L45.2548 88Z" fill="#21F5A8"/>
</g>
<path d="M127.229 69C129.132 69 130.646 68.5459 131.749 67.6595C132.852 66.773 133.393 65.5838 133.393 64.0919V62.7081H129.911V63.9405C129.911 65.2162 128.937 65.973 127.207 65.973C125.369 65.973 124.352 65.2162 124.352 63.9405V58.0595C124.352 56.7838 125.39 56.027 127.229 56.027C128.959 56.027 129.911 56.7838 129.911 58.0595V59.2919H133.393V57.9081C133.393 54.9027 131.035 53 127.207 53C125.282 53 123.768 53.4324 122.665 54.3189C121.562 55.2054 121 56.4162 121 57.9081V64.0919C121 65.5838 121.562 66.773 122.687 67.6595C123.79 68.5459 125.304 69 127.229 69Z" fill="black"/>
<path d="M145.531 53.3243L142.568 62.3838L139.583 53.3243H135.388V68.6757H138.416V58.6432L141.357 68.6757H143.758L146.699 58.6V68.6757H149.727V53.3243H145.531Z" fill="black"/>
<path d="M157.679 69C159.539 69 160.988 68.5459 162.026 67.6378C163.064 66.7297 163.583 65.5622 163.583 64.1351C163.583 61.3892 161.507 60.2649 159.409 59.5946C157.29 58.8811 155.214 58.6865 155.214 57.5189C155.214 56.5676 156.165 56.027 157.485 56.027C158.89 56.027 159.972 56.6541 159.972 57.5838V58.3838H163.324V57.6703C163.324 54.8378 161.313 53 157.528 53C153.743 53 151.84 54.9243 151.84 57.6054C151.84 60.3514 153.916 61.3243 156.035 61.9297C158.133 62.6 160.21 62.8162 160.21 64.2865C160.21 65.4108 159.063 66.0162 157.766 66.0162C156.187 66.0162 154.868 65.2595 154.868 64.1351V63.3784H151.515V63.9189C151.515 65.4324 152.078 66.6649 153.181 67.5946C154.284 68.5243 155.776 69 157.679 69Z" fill="black"/>
<path d="M170.533 53.3243V68.6757H173.885V63.7027H177.021C178.535 63.7027 179.746 63.2919 180.676 62.4703C181.584 61.6703 182.038 60.5892 182.038 59.227V57.8C182.038 56.4378 181.584 55.3568 180.654 54.5351C179.724 53.7351 178.513 53.3243 176.999 53.3243H170.533ZM178.686 59.3784C178.686 60.1784 178.102 60.6757 177.215 60.6757H173.885V56.3514H177.237C178.124 56.3514 178.686 56.8486 178.686 57.6486V59.3784Z" fill="black"/>
<path d="M194.396 67.6595C195.499 66.773 196.061 65.5838 196.061 64.0919V57.9081C196.061 54.9027 193.682 53 189.789 53C185.896 53 183.517 54.9027 183.517 57.9081V64.0919C183.517 65.5838 184.079 66.773 185.204 67.6595C186.329 68.5459 187.864 69 189.811 69C191.757 69 193.293 68.5459 194.396 67.6595ZM189.789 65.973C187.821 65.973 186.869 65.2162 186.869 63.9405V58.0595C186.869 56.6973 187.843 56.027 189.811 56.027C191.736 56.027 192.709 56.6973 192.709 58.0595V63.9405C192.709 65.3027 191.736 65.973 189.789 65.973Z" fill="black"/>
<path d="M209.732 68.6757L207.375 62.4703C208.824 61.6919 209.537 60.4378 209.537 58.7081V57.7568C209.537 56.4162 209.083 55.3351 208.153 54.5351C207.223 53.7351 206.012 53.3243 204.498 53.3243H198.032V68.6757H201.384V63.1405H204.087L206.25 68.6757H209.732ZM204.736 56.3514C205.623 56.3514 206.185 56.827 206.185 57.6054V58.8595C206.185 59.6595 205.645 60.1135 204.715 60.1135H201.384V56.3514H204.736Z" fill="black"/>
<path d="M210.366 53.3243V56.3514H214.497V68.6757H217.849V56.3514H221.937V53.3243H210.366Z" fill="black"/>
<path d="M234.569 68.6757L230.287 53.3243H225.507L221.225 68.6757H224.512L225.313 65.973H230.46L231.26 68.6757H234.569ZM226.178 62.9459L227.886 56.827L229.595 62.9459H226.178Z" fill="black"/>
<path d="M239.295 53.3243H235.943V68.6757H246V65.6486H239.295V53.3243Z" fill="black"/>
<defs>
<clipPath id="clip0_1119_2693">
<rect width="82" height="64" fill="black" transform="translate(24 24)"/>
</clipPath>
</defs>
</svg>
