<svg width="1366" height="247" viewBox="0 0 1366 247" fill="none" xmlns="http://www.w3.org/2000/svg">
<path d="M290.32 246.88H253.14L219.88 189.78L143.48 58.75L142.89 57.73L142.88 57.72L159.71 27.36L161 25.03L281.35 231.5L290.32 246.88Z" fill="#1A1A1A"/>
<path d="M124.03 27.11L52.15 156.91L18.94 216.88L17.84 218.87L16.8 217L15.68 214.94L1.77999 189.88L0.0499878 186.79L0.80999 185.38L16.15 157.71L31.93 129.16L34.51 124.81L34.45 124.68L71.71 57.36L88.4 27.23L103.42 0.130005H138.98L124.33 26.59L124.03 27.11Z" fill="#1A1A1A"/>
<path d="M186.56 216.75H54.8199L69.5699 190.15H171.82L186.56 216.75Z" fill="#1A1A1A"/>
<path d="M415.41 30.8L312.32 216.88L309.78 221.5L291.2 189.76L290.61 188.76L290.26 188.15L362.56 57.61L379.52 26.98H248.2L263.06 0.380005H398.44L413.48 27.36L415.33 30.67L415.41 30.8Z" fill="#1A1A1A"/>
<path d="M289.69 188.15L309.81 222.5L289.69 188.15ZM289.96 187.64L289.82 187.9L289.97 188.15L290.11 187.89L289.96 187.64Z" fill="black"/>
<path d="M378.68 27.48L367.02 48.53L362.27 57.11H264.06L247.79 27.72L247.92 27.48H378.68Z" fill="#333333"/>
<path d="M431.7 60.03L361.11 187.53L359.81 189.76L359.65 190.15H359.66L328.23 246.88H290.89L274.66 219.02L162.78 27.11L161 24.03L160.99 24.02L150.29 43.34L147.63 48.14L142.58 57.23L142.31 57.73L53.97 217.25H186.85L187.07 217.63L170.73 246.88H33.63L18.26 219.13L139.41 0.380005H179.77L289.69 188.15L309.8 222.5L412.84 36.47L415.7 31.31L430.29 57.47L431.7 60.03Z" fill="white"/>
<path d="M290.11 187.88L289.97 188.15L289.82 187.9L289.96 187.63L290.11 187.88Z" fill="white"/>
<path d="M290.61 188.76L290.26 188.15L290.61 188.74V188.76Z" fill="white"/>
<path d="M291.2 189.76L290.61 188.76L291.21 189.76L309.78 221.5L291.2 189.76Z" fill="white"/>
<path d="M430.29 57.47L431.7 60.03L361.11 187.53L359.81 189.76L359.65 190.15H359.66L328.23 246.88H290.89L274.66 219.02L162.78 27.11L161 24.03L150.29 43.34L147.63 48.14L142.58 57.23L142.31 57.73L53.97 217.25H186.85L187.07 217.63L170.73 246.88H33.63L18.26 219.13L139.41 0.380005H179.77L289.69 188.15L309.8 222.5L312.76 217.12L383.94 88.63L400.5 58.69L412.84 36.47L415.7 31.31L430.29 57.47Z" fill="white"/>
<path d="M431.7 60.03L361.11 187.53L359.81 189.76L359.65 190.15H359.66L328.23 246.88H290.89L274.66 219.02L162.78 27.11L161 24.03L150.29 43.34L147.63 48.14L142.58 57.23L142.31 57.73L53.97 217.25H186.85L187.07 217.63L170.73 246.88H33.63L18.26 219.13L139.41 0.380005H179.77L289.69 188.15L309.8 222.5L312.76 217.12L383.94 88.63L400.5 58.69L412.84 36.47L415.7 31.31L430.29 57.47L431.7 60.03Z" fill="#333333"/>
<path d="M422.95 59.82L422.89 59.91" stroke="#1A1A1A" stroke-width="0.25" stroke-miterlimit="10"/>
<path d="M214.79 54.22H214.58" stroke="#1A1A1A" stroke-width="0.25" stroke-miterlimit="10"/>
<path d="M421.59 57.23H421.4" stroke="#1A1A1A" stroke-width="0.25" stroke-miterlimit="10"/>
<path d="M539.56 102.85C538.741 102.85 537.935 102.645 537.215 102.254C536.496 101.862 535.885 101.297 535.44 100.61L520 77L520.09 79.82C520.16 82.82 520.2 85.82 520.2 88.82V135.82C520.2 139.05 518.41 140.9 515.28 140.9C512.15 140.9 510.28 139.05 510.28 135.82V71.82C510.28 66.53 513.06 63.61 518.12 63.61C521.12 63.61 523.62 65.05 525.63 67.89L543.63 95.16C544.162 95.9644 544.451 96.9055 544.46 97.87C544.48 101 542.69 102.85 539.56 102.85Z" fill="black"/>
<path d="M574.13 68.7V133.07C574.13 138.13 571.46 140.91 566.61 140.91C565.148 140.925 563.708 140.553 562.436 139.831C561.164 139.109 560.106 138.063 559.37 136.8L541.23 109.27C540.649 108.482 540.337 107.529 540.34 106.55C540.34 103.39 542.15 101.55 545.34 101.55C546.165 101.564 546.974 101.785 547.692 102.192C548.41 102.599 549.014 103.179 549.45 103.88L564.49 127L564.4 124.41C564.26 121.46 564.19 118.51 564.19 115.66V68.7C564.19 65.47 566.01 63.62 569.19 63.62C572.37 63.62 574.13 65.47 574.13 68.7Z" fill="black"/>
<path d="M655.41 111C655.033 118.176 652.358 125.041 647.78 130.58C643.465 135.817 637.505 139.44 630.87 140.86C630.42 140.94 630.04 141 629.7 141.04L628.64 141.1C625.56 141.1 623.82 139.38 623.82 136.39C623.754 135.237 624.131 134.103 624.875 133.219C625.619 132.336 626.673 131.771 627.82 131.64C638.53 129.55 644.3 122.69 645.43 110.69C645.95 105.072 645.95 99.418 645.43 93.8C645.053 87.9906 642.563 82.52 638.43 78.42C634.316 74.5162 628.861 72.3399 623.19 72.3399C617.519 72.3399 612.064 74.5162 607.95 78.42C603.829 82.5285 601.342 87.9942 600.95 93.8C600.41 99.4137 600.41 105.066 600.95 110.68C602.09 122.68 607.85 129.55 618.57 131.68C619.717 131.806 620.773 132.369 621.517 133.251C622.262 134.133 622.638 135.268 622.57 136.42C622.57 139.42 620.83 141.13 617.8 141.13C617.5 141.13 617.13 141.13 616.7 141.07C616.27 141.01 615.96 140.97 615.56 140.9C608.889 139.501 602.893 135.872 598.56 130.61C594.002 125.053 591.352 118.178 591 111C590.55 105.175 590.55 99.3246 591 93.5C591.425 85.2207 594.965 77.4083 600.91 71.63C606.902 65.8802 614.885 62.6697 623.19 62.6697C631.495 62.6697 639.478 65.8802 645.47 71.63C651.42 77.4085 654.961 85.2262 655.38 93.51C655.849 99.3301 655.859 105.178 655.41 111Z" fill="black"/>
<path d="M1215 68.59C1215 71.75 1213.15 73.59 1209.92 73.59H1174.13V93.1C1174.13 96.33 1172.33 98.18 1169.21 98.18C1166.09 98.18 1164.21 96.33 1164.21 93.1V71.46C1164.21 66.46 1167.03 63.62 1172.21 63.62H1209.94C1213.11 63.62 1215 65.43 1215 68.59Z" fill="black"/>
<path d="M796.9 130.72C796.907 131.428 796.754 132.128 796.452 132.769C796.151 133.409 795.709 133.974 795.16 134.42C789.437 139.386 782.065 142.036 774.49 141.85C765.56 141.85 758.11 138.85 752.33 132.98C746.55 127.11 743.47 119.19 743.47 109.78V68.7C743.47 65.47 745.29 63.62 748.47 63.62C751.65 63.62 753.38 65.47 753.38 68.7V109.42C753.38 116.34 755.38 121.95 759.38 126.12C761.346 128.112 763.704 129.674 766.305 130.706C768.906 131.739 771.693 132.221 774.49 132.12C779.693 132.264 784.759 130.435 788.67 127C789.098 126.576 789.608 126.242 790.168 126.018C790.728 125.795 791.327 125.687 791.93 125.7C795.08 125.74 796.9 127.56 796.9 130.72Z" fill="black"/>
<path d="M996.69 68.7V135.83C996.69 139.06 994.9 140.91 991.77 140.91C988.64 140.91 986.77 139.06 986.77 135.83V68.7C986.77 65.47 988.58 63.62 991.77 63.62C994.96 63.62 996.69 65.47 996.69 68.7Z" fill="black"/>
<path d="M1215.17 135.94C1215.17 139.1 1213.32 140.94 1210.09 140.94H1172.15C1167.02 140.94 1164.15 138.16 1164.15 133.1V108.89C1164.13 107.332 1164.43 105.786 1165.03 104.347C1165.63 102.908 1166.51 101.606 1167.63 100.52C1168.71 99.4026 1170.01 98.5202 1171.44 97.9282C1172.88 97.3362 1174.42 97.0474 1175.97 97.08H1208.97C1212.16 97.08 1213.97 98.86 1213.97 101.95C1213.97 105.04 1212.14 106.95 1208.97 106.95H1176.03C1174.53 106.95 1174.03 107.47 1174.03 108.95V131H1210.03C1213.32 131 1215.17 132.81 1215.17 135.94Z" fill="black"/>
<path d="M1080.53 68.7V133.07C1080.53 138.13 1077.86 140.91 1073.01 140.91C1071.55 140.926 1070.11 140.554 1068.84 139.832C1067.56 139.11 1066.51 138.064 1065.77 136.8L1047.62 109.27C1047.05 108.479 1046.74 107.527 1046.73 106.55C1046.73 103.39 1048.54 101.55 1051.73 101.55C1052.56 101.568 1053.36 101.79 1054.08 102.197C1054.8 102.603 1055.41 103.182 1055.85 103.88L1070.89 127L1070.8 124.41C1070.66 121.46 1070.59 118.51 1070.59 115.66V68.7C1070.59 65.47 1072.4 63.62 1075.59 63.62C1078.78 63.62 1080.53 65.47 1080.53 68.7Z" fill="black"/>
<path d="M870 73.08C870 76.17 868.15 77.95 864.92 77.95C864.256 77.939 863.604 77.7675 863.02 77.45L861.73 76.67C859.588 75.3787 857.298 74.3512 854.91 73.61C852.235 72.7826 849.45 72.3613 846.65 72.36C840.79 72.36 836.45 73.59 833.72 76.03C831.51 78.03 830.43 80.74 830.43 84.3C830.43 87.41 831.35 89.7 833.24 91.3C835.31 93.04 839.24 94.61 844.79 95.95C845.913 96.1974 846.912 96.836 847.609 97.7519C848.305 98.6678 848.653 99.8013 848.59 100.95C848.652 101.674 848.547 102.403 848.281 103.079C848.016 103.756 847.598 104.362 847.06 104.85C846.228 105.479 845.202 105.798 844.16 105.75C843.507 105.745 842.857 105.672 842.22 105.53C827.65 102.23 820.28 95.14 820.28 84.46C820.28 77.81 822.74 72.41 827.62 68.46C832.34 64.61 838.62 62.65 846.39 62.65C855.61 62.65 862.93 64.8 868.14 69.04C868.741 69.5243 869.221 70.1409 869.544 70.8418C869.867 71.5427 870.023 72.3088 870 73.08V73.08Z" fill="black"/>
<path d="M876.83 120C876.903 123.126 876.212 126.222 874.818 129.02C873.424 131.819 871.369 134.235 868.83 136.06C863.76 139.89 857.12 141.84 849.1 141.84C843.602 141.854 838.136 141.007 832.9 139.33C828.736 138.092 824.854 136.054 821.47 133.33C820.863 132.851 820.38 132.233 820.062 131.528C819.743 130.823 819.599 130.052 819.64 129.28C819.64 126.22 821.49 124.47 824.71 124.47C825.895 124.547 827.029 124.983 827.96 125.72C830.646 127.691 833.626 129.226 836.79 130.27C840.694 131.534 844.776 132.166 848.88 132.14C854.8 132.14 859.41 130.86 862.59 128.33C863.891 127.368 864.941 126.107 865.653 124.654C866.365 123.2 866.717 121.598 866.68 119.98C866.76 118.626 866.542 117.271 866.043 116.01C865.544 114.749 864.775 113.612 863.79 112.68C861.65 110.74 857.79 109.1 852.31 107.8C851.176 107.553 850.167 106.908 849.468 105.982C848.769 105.055 848.426 103.908 848.5 102.75C848.443 102.026 848.552 101.298 848.818 100.622C849.085 99.9458 849.503 99.3398 850.04 98.85C851.15 97.96 852.78 97.74 854.88 98.18C869.44 101.51 876.83 108.84 876.83 120Z" fill="black"/>
<path d="M734 66.52C734.237 67.1553 734.343 67.8322 734.31 68.5095C734.277 69.1869 734.107 69.8505 733.81 70.46L709.33 133.92C707.15 139.36 703.76 142.11 699.22 142.11C694.68 142.11 691.22 139.36 689.11 133.93L664.63 70.44C664.303 69.8381 664.117 69.1696 664.087 68.4851C664.056 67.8007 664.182 67.1183 664.455 66.4899C664.728 65.8614 665.14 65.3034 665.661 64.8581C666.182 64.4128 666.797 64.092 667.46 63.92C670.46 62.78 672.8 63.81 673.94 66.75L698.94 132.11C699.05 132.38 699.11 132.38 699.22 132.38C699.33 132.38 699.36 132.32 699.45 132.1L724.51 66.75C725.65 63.81 728 62.75 730.98 63.91C731.636 64.1143 732.242 64.4515 732.762 64.9006C733.281 65.3496 733.703 65.9009 734 66.52V66.52Z" fill="black"/>
<path d="M1153.26 68.59C1153.26 71.75 1151.4 73.59 1148.18 73.59H1127.36V135.86C1127.36 139.09 1125.55 140.94 1122.36 140.94C1119.17 140.94 1117.44 139.09 1117.44 135.86V73.56H1096.44C1093.22 73.56 1091.37 71.75 1091.37 68.56C1091.37 65.37 1093.22 63.56 1096.44 63.56H1148.18C1151.4 63.62 1153.26 65.43 1153.26 68.59Z" fill="black"/>
<path d="M930.75 99.21C932.088 98.7317 933.499 98.4914 934.92 98.5H966.77C969.99 98.5 971.84 100.31 971.84 103.5C971.84 106.69 969.99 108.41 966.77 108.41H934.92C933.43 108.41 932.92 108.94 932.92 110.41V135.83C932.92 139.06 931.13 140.91 928.01 140.91C924.89 140.91 923.01 139.06 923.01 135.83V110.41C922.989 108.841 923.288 107.283 923.89 105.834C924.492 104.384 925.384 103.073 926.51 101.98C927.452 101.024 928.547 100.233 929.75 99.64C929.178 99.8028 928.585 99.8803 927.99 99.87C924.82 99.87 922.99 98.02 922.99 94.8V71.46C922.99 66.46 925.81 63.62 930.99 63.62H968.74C971.96 63.62 973.81 65.43 973.81 68.62C973.81 71.81 971.96 73.62 968.74 73.62H932.89V94.8C932.97 95.6604 932.813 96.5264 932.436 97.3038C932.059 98.0813 931.476 98.7405 930.75 99.21V99.21Z" fill="black"/>
<path d="M805.57 68.7V109.78C805.625 114.689 804.648 119.554 802.7 124.06C802.369 124.993 801.747 125.794 800.926 126.347C800.105 126.9 799.129 127.174 798.14 127.13C794.98 127.13 793.14 125.32 793.14 122.13C793.135 121.539 793.227 120.952 793.41 120.39C794.914 116.921 795.661 113.171 795.6 109.39V68.7C795.6 65.47 797.41 63.62 800.6 63.62C803.79 63.62 805.57 65.47 805.57 68.7Z" fill="black"/>
<path d="M1046 102.85C1045.18 102.85 1044.37 102.645 1043.65 102.254C1042.93 101.862 1042.32 101.298 1041.87 100.61L1026.41 77L1026.5 79.82C1026.57 82.82 1026.61 85.82 1026.61 88.82V135.82C1026.61 139.05 1024.81 140.9 1021.68 140.9C1018.55 140.9 1016.68 139.05 1016.68 135.82V71.82C1016.68 66.53 1019.46 63.61 1024.52 63.61C1027.52 63.61 1030.02 65.05 1032.03 67.89L1050.03 95.16C1050.56 95.9656 1050.85 96.9059 1050.86 97.87C1050.88 101 1049.09 102.85 1046 102.85Z" fill="black"/>
<path d="M1227.94 96.73C1227.64 87.8532 1230.88 79.2206 1236.94 72.73C1239.91 69.4932 1243.54 66.9272 1247.58 65.2028C1251.62 63.4785 1255.99 62.6355 1260.38 62.73C1274.03 62.73 1283.38 69.04 1288.23 81.46C1288.5 82.1136 1288.64 82.8132 1288.64 83.52C1288.64 86.52 1286.88 88.23 1283.82 88.23C1282.8 88.2543 1281.81 87.9583 1280.97 87.384C1280.13 86.8096 1279.49 85.9861 1279.15 85.03C1275.64 76.54 1269.49 72.41 1260.38 72.41C1257.34 72.3098 1254.31 72.8919 1251.52 74.1135C1248.74 75.3352 1246.26 77.1654 1244.27 79.47C1240.17 84.06 1238 90 1237.84 97.12C1237.84 100.25 1236.05 102.06 1232.92 102.06C1229.79 102.06 1227.94 100.09 1227.94 96.73Z" fill="black"/>
<path d="M1288.63 121.11C1288.62 121.797 1288.48 122.476 1288.22 123.11C1283.39 135.52 1274.02 141.83 1260.37 141.83C1255.98 141.925 1251.61 141.082 1247.57 139.357C1243.53 137.633 1239.9 135.067 1236.93 131.83C1233.93 128.617 1231.59 124.843 1230.04 120.725C1228.5 116.607 1227.78 112.225 1227.93 107.83C1227.93 104.5 1229.74 102.57 1232.93 102.57C1236.12 102.57 1237.85 104.38 1237.85 107.57C1238.01 114.66 1240.18 120.57 1244.28 125.19C1246.28 127.481 1248.76 129.299 1251.54 130.51C1254.33 131.721 1257.35 132.295 1260.39 132.19C1269.5 132.19 1275.65 128.06 1279.16 119.58C1279.51 118.626 1280.14 117.804 1280.98 117.232C1281.82 116.659 1282.82 116.365 1283.83 116.39C1286.87 116.35 1288.63 118.09 1288.63 121.11Z" fill="black"/>
<path d="M1313.58 68.7V135.83C1313.58 139.06 1311.79 140.91 1308.66 140.91C1305.53 140.91 1303.66 139.06 1303.66 135.83V68.7C1303.66 65.47 1305.47 63.62 1308.66 63.62C1311.85 63.62 1313.58 65.47 1313.58 68.7Z" fill="black"/>
<path d="M1365.68 68.7V135.83C1365.68 139.06 1363.87 140.91 1360.68 140.91C1357.49 140.91 1355.68 139.06 1355.68 135.83V107.24H1319.1C1315.91 107.24 1314.1 105.43 1314.1 102.24C1314.1 99.05 1315.93 97.33 1319.1 97.33H1355.74V68.7C1355.74 65.47 1357.55 63.62 1360.74 63.62C1363.93 63.62 1365.68 65.47 1365.68 68.7Z" fill="black"/>
<path d="M535.09 244.71C533.51 244.782 531.952 244.317 530.67 243.39C529.409 242.336 528.467 240.95 527.95 239.39L510.78 191.11C510.399 190.223 510.242 189.255 510.322 188.293C510.402 187.33 510.717 186.402 511.24 185.59C512.287 184.057 514.117 183.29 516.73 183.29C518.239 183.196 519.73 183.65 520.93 184.57C522.076 185.668 522.913 187.047 523.36 188.57L537.36 230.31H533.71L548.5 188.66C549.002 187.146 549.86 185.775 551 184.66C552.118 183.729 553.548 183.257 555 183.34C556.396 183.273 557.763 183.746 558.82 184.66C559.957 185.819 560.803 187.231 561.29 188.78L575.4 230.35H572.25L586.53 188.61C586.938 187.082 587.762 185.697 588.91 184.61C590.092 183.676 591.575 183.206 593.08 183.29C594.017 183.219 594.956 183.394 595.805 183.797C596.654 184.201 597.383 184.819 597.92 185.59C598.427 186.411 598.724 187.344 598.783 188.307C598.843 189.27 598.663 190.233 598.26 191.11L580.9 239.44C580.429 240.966 579.546 242.332 578.35 243.39C577.076 244.332 575.512 244.799 573.93 244.71C572.376 244.792 570.843 244.325 569.6 243.39C568.383 242.312 567.472 240.933 566.96 239.39L553.53 201.39H555.53L542 239.44C541.481 240.953 540.591 242.311 539.41 243.39C538.175 244.335 536.642 244.803 535.09 244.71V244.71Z" fill="black"/>
<path d="M615 243.94C614.071 244.045 613.13 243.939 612.247 243.631C611.364 243.322 610.561 242.819 609.9 242.158C609.238 241.497 608.733 240.695 608.423 239.813C608.114 238.93 608.007 237.99 608.11 237.06V190.9C608.003 189.969 608.108 189.026 608.416 188.141C608.725 187.256 609.229 186.452 609.891 185.788C610.553 185.125 611.357 184.62 612.241 184.31C613.126 184.001 614.069 183.895 615 184H644.66C645.36 183.95 646.062 184.041 646.727 184.266C647.391 184.49 648.004 184.846 648.53 185.31C648.994 185.82 649.35 186.419 649.577 187.07C649.804 187.722 649.897 188.412 649.85 189.1C649.94 189.803 649.868 190.516 649.639 191.187C649.409 191.857 649.03 192.465 648.528 192.966C648.027 193.466 647.418 193.845 646.747 194.073C646.076 194.3 645.362 194.371 644.66 194.28H620.66V208.28H642.66C643.372 208.225 644.089 208.312 644.767 208.537C645.445 208.762 646.072 209.12 646.61 209.59C647.466 210.698 647.931 212.059 647.931 213.46C647.931 214.861 647.466 216.222 646.61 217.33C646.073 217.802 645.446 218.162 644.768 218.389C644.09 218.615 643.373 218.704 642.66 218.65H620.66V233.65H644.66C645.36 233.598 646.063 233.687 646.728 233.912C647.393 234.137 648.006 234.494 648.53 234.96C648.994 235.47 649.35 236.069 649.577 236.72C649.804 237.372 649.897 238.062 649.85 238.75C649.94 239.453 649.868 240.166 649.639 240.837C649.409 241.507 649.03 242.115 648.528 242.616C648.027 243.116 647.418 243.495 646.747 243.723C646.076 243.95 645.362 244.021 644.66 243.93L615 243.94Z" fill="black"/>
<path d="M689.87 244.71C688.969 244.771 688.065 244.643 687.216 244.335C686.367 244.027 685.592 243.545 684.94 242.92C683.742 241.539 683.132 239.745 683.24 237.92V190.05C683.132 188.225 683.742 186.431 684.94 185.05C685.592 184.425 686.367 183.943 687.216 183.635C688.065 183.327 688.969 183.199 689.87 183.26C690.757 183.203 691.646 183.333 692.48 183.641C693.314 183.95 694.074 184.429 694.71 185.05C695.908 186.431 696.518 188.225 696.41 190.05V237.91C696.52 239.726 695.93 241.516 694.76 242.91C694.118 243.538 693.35 244.023 692.507 244.333C691.665 244.643 690.766 244.772 689.87 244.71Z" fill="black"/>
<path d="M714.6 244.71C713.769 244.763 712.937 244.643 712.155 244.357C711.374 244.072 710.66 243.626 710.06 243.05C708.938 241.743 708.37 240.049 708.48 238.33V189.88C708.357 188.095 708.923 186.331 710.06 184.95C710.597 184.382 711.25 183.936 711.975 183.643C712.7 183.35 713.479 183.216 714.26 183.25C715.5 183.174 716.734 183.485 717.79 184.14C718.861 184.995 719.819 185.983 720.64 187.08L750.47 225.08H748.18V189.54C748.075 187.85 748.639 186.188 749.75 184.91C751.024 183.839 752.635 183.251 754.3 183.251C755.965 183.251 757.576 183.839 758.85 184.91C759.957 186.19 760.52 187.851 760.42 189.54V238.54C760.508 240.158 759.991 241.752 758.97 243.01C758.483 243.561 757.879 243.996 757.203 244.283C756.526 244.57 755.794 244.702 755.06 244.67C753.735 244.733 752.421 244.406 751.28 243.73C750.134 242.888 749.123 241.876 748.28 240.73L718.53 202.73H720.74V238.26C720.851 239.971 720.303 241.659 719.21 242.98C718.608 243.578 717.885 244.041 717.091 244.34C716.296 244.638 715.447 244.764 714.6 244.71V244.71Z" fill="black"/>
<path d="M778.61 244.71C777.778 244.765 776.943 244.645 776.16 244.36C775.377 244.074 774.661 243.628 774.06 243.05C772.941 241.742 772.378 240.048 772.49 238.33V189.88C772.364 188.096 772.926 186.333 774.06 184.95C774.599 184.382 775.254 183.936 775.98 183.643C776.707 183.349 777.487 183.215 778.27 183.25C779.51 183.174 780.744 183.485 781.8 184.14C782.87 184.993 783.825 185.981 784.64 187.08L814.48 225.08H812.18V189.54C812.078 187.849 812.646 186.186 813.76 184.91C815.032 183.838 816.641 183.249 818.305 183.249C819.968 183.249 821.578 183.838 822.85 184.91C823.961 186.188 824.524 187.85 824.42 189.54V238.54C824.506 240.156 823.993 241.748 822.98 243.01C822.49 243.557 821.886 243.989 821.21 244.276C820.534 244.563 819.804 244.697 819.07 244.67C817.745 244.736 816.43 244.409 815.29 243.73C814.139 242.893 813.127 241.88 812.29 240.73L782.54 202.73H784.75V238.26C784.861 239.971 784.313 241.659 783.22 242.98C782.618 243.578 781.895 244.041 781.101 244.34C780.306 244.638 779.457 244.764 778.61 244.71V244.71Z" fill="black"/>
<path d="M864.29 244.88C858.863 244.996 853.504 243.657 848.77 241C844.353 238.449 840.758 234.688 838.41 230.16C835.854 225.139 834.583 219.563 834.71 213.93C834.645 209.604 835.349 205.3 836.79 201.22C838.088 197.605 840.132 194.303 842.79 191.53C845.446 188.805 848.65 186.675 852.19 185.28C856.047 183.77 860.159 183.02 864.3 183.07C869.761 182.936 875.159 184.258 879.94 186.9C884.337 189.426 887.921 193.156 890.27 197.65C892.837 202.657 894.119 208.224 894 213.85C894.059 218.192 893.341 222.51 891.88 226.6C890.572 230.237 888.53 233.566 885.88 236.38C883.247 239.118 880.059 241.263 876.53 242.67C872.633 244.198 868.475 244.949 864.29 244.88V244.88ZM864.29 233.66C867.29 233.813 870.262 233.011 872.778 231.369C875.293 229.727 877.223 227.329 878.29 224.52C879.634 221.158 880.283 217.559 880.2 213.94C880.2 207.7 878.813 202.867 876.04 199.44C873.267 196.013 869.357 194.3 864.31 194.3C861.313 194.221 858.358 195.021 855.81 196.6C853.348 198.222 851.448 200.566 850.37 203.31C849.042 206.693 848.406 210.307 848.5 213.94C848.5 220.113 849.887 224.943 852.66 228.43C855.433 231.917 859.31 233.66 864.29 233.66V233.66Z" fill="black"/>
<path d="M927.44 244.71C925.86 244.773 924.3 244.34 922.98 243.47C921.701 242.496 920.715 241.188 920.13 239.69L898.71 192.09C897.96 190.699 897.719 189.09 898.03 187.54C898.33 186.267 899.088 185.149 900.16 184.4C901.416 183.62 902.872 183.221 904.35 183.251C905.829 183.282 907.266 183.74 908.49 184.57C909.637 185.638 910.511 186.965 911.04 188.44L929.82 231.87H925.57L944.36 188.35C944.925 186.888 945.826 185.58 946.99 184.53C948.211 183.615 949.717 183.161 951.24 183.25C952.587 183.2 953.911 183.605 955 184.4C955.997 185.173 956.665 186.295 956.87 187.54C957.099 189.095 956.847 190.682 956.15 192.09L934.73 239.69C934.11 241.168 933.131 242.468 931.88 243.47C930.572 244.351 929.015 244.786 927.44 244.71V244.71Z" fill="black"/>
<path d="M960.68 244.71C959.303 244.773 957.944 244.383 956.81 243.6C955.826 242.876 955.156 241.803 954.94 240.6C954.708 239.169 954.962 237.701 955.66 236.43L977.42 188.75C978.115 187.091 979.228 185.641 980.65 184.54C981.932 183.68 983.441 183.22 984.985 183.22C986.529 183.22 988.038 183.68 989.32 184.54C990.733 185.631 991.822 187.086 992.47 188.75L1014.4 236.43C1015.09 237.719 1015.37 239.188 1015.2 240.64C1015.13 241.233 1014.94 241.805 1014.64 242.321C1014.34 242.838 1013.94 243.286 1013.46 243.64C1012.36 244.393 1011.05 244.768 1009.72 244.71C1008.12 244.811 1006.53 244.328 1005.26 243.35C1004.03 242.163 1003.08 240.709 1002.5 239.1L997.4 227.28L1002.67 230.94H967.22L972.49 227.28L967.49 239.1C966.886 240.692 965.976 242.149 964.81 243.39C963.655 244.346 962.175 244.819 960.68 244.71V244.71ZM984.82 198L973.94 224L971.64 220.68H998.25L996 224L985 198H984.82Z" fill="black"/>
<path d="M1037.18 244.71C1036.28 244.772 1035.37 244.644 1034.53 244.336C1033.68 244.028 1032.9 243.545 1032.25 242.92C1031.05 241.539 1030.44 239.745 1030.55 237.92V194.92H1015.55C1014.81 194.968 1014.06 194.864 1013.36 194.615C1012.66 194.366 1012.02 193.976 1011.47 193.47C1010.55 192.341 1010.04 190.928 1010.04 189.47C1010.04 188.012 1010.55 186.599 1011.47 185.47C1012.02 184.978 1012.67 184.6 1013.37 184.36C1014.07 184.119 1014.81 184.021 1015.55 184.07H1058.82C1059.56 184.023 1060.3 184.123 1061 184.363C1061.7 184.603 1062.35 184.979 1062.9 185.47C1063.82 186.599 1064.33 188.012 1064.33 189.47C1064.33 190.928 1063.82 192.341 1062.9 193.47C1062.35 193.975 1061.71 194.363 1061.01 194.613C1060.31 194.862 1059.56 194.966 1058.82 194.92H1043.82V237.92C1043.93 239.738 1043.34 241.53 1042.16 242.92C1041.51 243.56 1040.73 244.051 1039.87 244.36C1039.01 244.669 1038.09 244.789 1037.18 244.71V244.71Z" fill="black"/>
<path d="M1076.87 243.94C1075.94 244.047 1075 243.943 1074.12 243.635C1073.23 243.327 1072.43 242.824 1071.77 242.162C1071.11 241.5 1070.6 240.698 1070.3 239.814C1069.99 238.931 1069.88 237.989 1069.99 237.06V190.9C1069.88 189.971 1069.99 189.029 1070.3 188.146C1070.6 187.262 1071.11 186.46 1071.77 185.798C1072.43 185.137 1073.23 184.633 1074.12 184.325C1075 184.017 1075.94 183.913 1076.87 184.02H1106.54C1107.24 183.971 1107.94 184.061 1108.6 184.286C1109.26 184.511 1109.88 184.866 1110.4 185.33C1110.86 185.84 1111.22 186.439 1111.45 187.09C1111.67 187.742 1111.77 188.432 1111.72 189.12C1111.81 189.822 1111.74 190.534 1111.51 191.204C1111.28 191.873 1110.9 192.481 1110.4 192.981C1109.9 193.481 1109.29 193.86 1108.62 194.089C1107.95 194.318 1107.24 194.39 1106.54 194.3H1082.54V208.3H1104.54C1105.26 208.237 1105.99 208.32 1106.67 208.545C1107.36 208.77 1108 209.133 1108.54 209.61C1109.4 210.718 1109.86 212.079 1109.86 213.48C1109.86 214.881 1109.4 216.242 1108.54 217.35C1108 217.829 1107.36 218.193 1106.68 218.42C1105.99 218.647 1105.26 218.732 1104.54 218.67H1082.54V233.67H1106.54C1107.24 233.618 1107.94 233.708 1108.6 233.933C1109.27 234.158 1109.88 234.514 1110.4 234.98C1110.86 235.49 1111.22 236.089 1111.45 236.74C1111.67 237.392 1111.77 238.082 1111.72 238.77C1111.81 239.472 1111.74 240.184 1111.51 240.854C1111.28 241.523 1110.9 242.131 1110.4 242.631C1109.9 243.131 1109.29 243.51 1108.62 243.739C1107.95 243.968 1107.24 244.04 1106.54 243.95L1076.87 243.94Z" fill="black"/>
</svg>
