<svg width="1378" height="248" viewBox="0 0 1378 248" fill="none" xmlns="http://www.w3.org/2000/svg">
<path d="M291.06 247.619H253.88L220.62 190.519L144.22 59.4893L143.63 58.4793L143.62 58.4593L160.44 28.0993L161.74 25.7793L282.08 232.239L291.06 247.619Z" fill="#F2F2F2"/>
<path d="M124.76 27.8591L52.8903 157.649L19.6703 217.619L18.5803 219.609L17.5303 217.739L16.4103 215.689L2.52028 190.629L0.780273 187.539L1.55027 186.119L16.8803 158.449L32.6703 129.909L35.2503 125.549L35.1903 125.419L72.4403 58.1091L89.1403 27.9791L104.16 0.869141H139.72L125.06 27.3391L124.76 27.8591Z" fill="#F2F2F2"/>
<path d="M187.29 217.491H55.5596L70.3096 190.891H172.56L187.29 217.491Z" fill="#F2F2F2"/>
<path d="M416.14 31.5391L313.06 217.619L310.51 222.239L291.94 190.509L291.35 189.509L291 188.889L363.3 58.3591L380.25 27.7291H248.94L263.8 1.11914H399.18L414.21 28.0991L416.06 31.4091L416.14 31.5391Z" fill="#F2F2F2"/>
<path d="M379.42 28.2305L367.75 49.2805L363 57.8605H264.8L248.52 28.4705L248.65 28.2305H379.42Z" fill="white"/>
<path d="M432.44 60.7791L361.85 188.279L360.55 190.509L360.38 190.889H360.39L328.96 247.619H291.63L275.39 219.769L163.51 27.8591L161.74 24.7691L161.72 24.7591L151.03 44.0891L148.37 48.8791L143.31 57.9791L143.04 58.4791L54.7002 217.989H187.59L187.81 218.379L171.47 247.619H34.3602L18.9902 219.879L140.15 1.11914H180.5L290.43 188.889L310.54 223.249L413.57 37.2091L416.44 32.0591L431.02 58.2191L432.44 60.7791Z" fill="white"/>
<path d="M143.62 58.4596L160.44 28.0996L143.63 58.4796L143.62 58.4596Z" fill="white"/>
<path d="M291.06 247.62H291.05L282.08 232.24L291.06 247.62Z" fill="white"/>
<path d="M291.35 189.511L291 188.891L291.35 189.481V189.511Z" fill="white"/>
<path d="M291.94 190.51L291.35 189.51L291.94 190.51L310.51 222.24L291.94 190.51Z" fill="white"/>
<path d="M431.02 58.2191L432.44 60.7791L361.85 188.279L360.55 190.509L360.38 190.889H360.39L328.96 247.619H291.63L275.39 219.769L163.51 27.8591L161.74 24.7691L151.03 44.0891L148.37 48.8791L143.31 57.9791L143.04 58.4791L54.7002 217.989H187.59L187.81 218.379L171.47 247.619H34.3602L18.9902 219.879L140.15 1.11914H180.5L290.43 188.889L310.54 223.249L313.5 217.859L384.68 89.3691L401.24 59.4391L413.57 37.2091L416.44 32.0591L431.02 58.2191Z" fill="white"/>
<path d="M432.44 60.7791L361.85 188.279L360.55 190.509L360.38 190.889H360.39L328.96 247.619H291.63L275.39 219.769L163.51 27.8591L161.74 24.7691L151.03 44.0891L148.37 48.8791L143.31 57.9791L143.04 58.4791L54.7002 217.989H187.59L187.81 218.379L171.47 247.619H34.3602L18.9902 219.879L140.15 1.11914H180.5L290.43 188.889L310.54 223.249L313.5 217.859L384.68 89.3691L401.24 59.4391L413.57 37.2091L416.44 32.0591L431.02 58.2191L432.44 60.7791Z" fill="white"/>
<path d="M551.56 101.849C550.741 101.849 549.935 101.644 549.216 101.253C548.496 100.862 547.886 100.297 547.44 99.6094L532 75.9994L532.09 78.8194C532.16 81.8194 532.2 84.8194 532.2 87.8194V134.819C532.2 138.049 530.41 139.899 527.28 139.899C524.15 139.899 522.28 138.049 522.28 134.819V70.8194C522.28 65.5294 525.06 62.6094 530.12 62.6094C533.12 62.6094 535.62 64.0494 537.63 66.8894L555.63 94.1594C556.163 94.9637 556.451 95.9049 556.46 96.8694C556.48 99.9994 554.69 101.849 551.56 101.849Z" fill="white"/>
<path d="M586.13 67.6991V132.069C586.13 137.129 583.46 139.909 578.61 139.909C577.148 139.924 575.707 139.552 574.436 138.83C573.164 138.108 572.106 137.063 571.37 135.799L553.23 108.269C552.649 107.481 552.337 106.528 552.34 105.549C552.34 102.389 554.15 100.549 557.34 100.549C558.165 100.563 558.973 100.784 559.691 101.191C560.409 101.598 561.014 102.178 561.45 102.879L576.49 125.999L576.4 123.409C576.26 120.459 576.19 117.509 576.19 114.659V67.6991C576.19 64.4691 578.01 62.6191 581.19 62.6191C584.37 62.6191 586.13 64.4691 586.13 67.6991Z" fill="white"/>
<path d="M667.41 110C667.033 117.176 664.358 124.041 659.78 129.58C655.465 134.817 649.505 138.44 642.87 139.86C642.42 139.94 642.04 140 641.7 140.04L640.64 140.1C637.56 140.1 635.82 138.38 635.82 135.39C635.753 134.237 636.131 133.103 636.875 132.22C637.619 131.336 638.672 130.771 639.82 130.64C650.53 128.55 656.3 121.69 657.43 109.69C657.95 104.072 657.95 98.4182 657.43 92.8002C657.052 86.9908 654.563 81.5202 650.43 77.4202C646.316 73.5165 640.861 71.3402 635.19 71.3402C629.518 71.3402 624.063 73.5165 619.95 77.4202C615.829 81.5288 613.341 86.9945 612.95 92.8002C612.41 98.4139 612.41 104.067 612.95 109.68C614.09 121.68 619.85 128.55 630.57 130.68C631.717 130.806 632.772 131.369 633.517 132.251C634.261 133.133 634.638 134.268 634.57 135.42C634.57 138.42 632.83 140.13 629.8 140.13C629.5 140.13 629.13 140.13 628.7 140.07C628.27 140.01 627.96 139.97 627.56 139.9C620.889 138.501 614.893 134.872 610.56 129.61C606.002 124.053 603.352 117.178 603 110C602.55 104.176 602.55 98.3249 603 92.5002C603.425 84.2209 606.965 76.4086 612.91 70.6302C618.902 64.8805 626.885 61.6699 635.19 61.6699C643.494 61.6699 651.477 64.8805 657.47 70.6302C663.42 76.4088 666.961 84.2264 667.38 92.5102C667.849 98.3304 667.859 104.178 667.41 110Z" fill="white"/>
<path d="M1227 67.5891C1227 70.7491 1225.15 72.5891 1221.92 72.5891H1186.13V92.0991C1186.13 95.3291 1184.33 97.1791 1181.21 97.1791C1178.09 97.1791 1176.21 95.3291 1176.21 92.0991V70.4591C1176.21 65.4591 1179.03 62.6191 1184.21 62.6191H1221.94C1225.11 62.6191 1227 64.4291 1227 67.5891Z" fill="white"/>
<path d="M808.9 129.719C808.906 130.427 808.753 131.127 808.452 131.768C808.151 132.408 807.709 132.973 807.16 133.419C801.437 138.385 794.065 141.035 786.49 140.849C777.56 140.849 770.11 137.849 764.33 131.979C758.55 126.109 755.47 118.189 755.47 108.779V67.6991C755.47 64.4691 757.29 62.6191 760.47 62.6191C763.65 62.6191 765.38 64.4691 765.38 67.6991V108.419C765.38 115.339 767.38 120.949 771.38 125.119C773.346 127.111 775.704 128.673 778.305 129.706C780.906 130.738 783.693 131.22 786.49 131.119C791.693 131.264 796.759 129.434 800.67 125.999C801.098 125.575 801.607 125.241 802.167 125.017C802.728 124.794 803.327 124.686 803.93 124.699C807.08 124.739 808.9 126.559 808.9 129.719Z" fill="white"/>
<path d="M1008.69 67.6991V134.829C1008.69 138.059 1006.9 139.909 1003.77 139.909C1000.64 139.909 998.77 138.059 998.77 134.829V67.6991C998.77 64.4691 1000.58 62.6191 1003.77 62.6191C1006.96 62.6191 1008.69 64.4691 1008.69 67.6991Z" fill="white"/>
<path d="M1227.17 134.941C1227.17 138.101 1225.32 139.941 1222.09 139.941H1184.15C1179.02 139.941 1176.15 137.161 1176.15 132.101V107.891C1176.13 106.332 1176.43 104.787 1177.03 103.348C1177.63 101.909 1178.51 100.606 1179.63 99.5206C1180.71 98.4032 1182.01 97.5208 1183.44 96.9288C1184.88 96.3368 1186.42 96.0481 1187.97 96.0806H1220.97C1224.16 96.0806 1225.97 97.8606 1225.97 100.951C1225.97 104.041 1224.14 105.951 1220.97 105.951H1188.03C1186.53 105.951 1186.03 106.471 1186.03 107.951V130.001H1222.03C1225.32 130.001 1227.17 131.811 1227.17 134.941Z" fill="white"/>
<path d="M1092.53 67.6991V132.069C1092.53 137.129 1089.86 139.909 1085.01 139.909C1083.55 139.925 1082.11 139.554 1080.84 138.832C1079.56 138.11 1078.51 137.063 1077.77 135.799L1059.62 108.269C1059.05 107.478 1058.74 106.526 1058.73 105.549C1058.73 102.389 1060.54 100.549 1063.73 100.549C1064.56 100.567 1065.36 100.789 1066.08 101.196C1066.8 101.602 1067.41 102.181 1067.85 102.879L1082.89 125.999L1082.8 123.409C1082.66 120.459 1082.59 117.509 1082.59 114.659V67.6991C1082.59 64.4691 1084.4 62.6191 1087.59 62.6191C1090.78 62.6191 1092.53 64.4691 1092.53 67.6991Z" fill="white"/>
<path d="M882 72.0804C882 75.1704 880.15 76.9504 876.92 76.9504C876.256 76.9394 875.604 76.7678 875.02 76.4504L873.73 75.6704C871.589 74.379 869.299 73.3516 866.91 72.6104C864.235 71.783 861.451 71.3617 858.65 71.3604C852.79 71.3604 848.45 72.5904 845.72 75.0304C843.51 77.0304 842.43 79.7404 842.43 83.3004C842.43 86.4104 843.35 88.7004 845.24 90.3004C847.31 92.0404 851.24 93.6104 856.79 94.9504C857.914 95.1977 858.913 95.8364 859.609 96.7523C860.305 97.6682 860.653 98.8017 860.59 99.9504C860.653 100.674 860.547 101.403 860.282 102.079C860.016 102.756 859.598 103.362 859.06 103.85C858.228 104.48 857.202 104.798 856.16 104.75C855.508 104.746 854.857 104.672 854.22 104.53C839.65 101.23 832.28 94.1404 832.28 83.4604C832.28 76.8104 834.74 71.4604 839.62 67.4604C844.34 63.6104 850.62 61.6504 858.39 61.6504C867.61 61.6504 874.93 63.8004 880.14 68.0404C880.741 68.5246 881.222 69.1413 881.544 69.8422C881.867 70.5431 882.023 71.3091 882 72.0804V72.0804Z" fill="white"/>
<path d="M888.83 119.001C888.902 122.126 888.212 125.222 886.818 128.021C885.424 130.819 883.368 133.236 880.83 135.061C875.76 138.891 869.12 140.841 861.1 140.841C855.602 140.854 850.136 140.007 844.9 138.331C840.736 137.092 836.854 135.054 833.47 132.331C832.863 131.851 832.38 131.233 832.061 130.529C831.743 129.824 831.598 129.053 831.64 128.281C831.64 125.221 833.49 123.471 836.71 123.471C837.895 123.548 839.028 123.984 839.96 124.721C842.646 126.691 845.626 128.227 848.79 129.271C852.694 130.535 856.776 131.166 860.88 131.141C866.8 131.141 871.41 129.861 874.59 127.331C875.891 126.368 876.941 125.107 877.653 123.654C878.364 122.201 878.717 120.598 878.68 118.981C878.759 117.627 878.542 116.272 878.043 115.011C877.544 113.75 876.775 112.613 875.79 111.681C873.65 109.741 869.79 108.101 864.31 106.801C863.175 106.554 862.167 105.909 861.468 104.982C860.769 104.056 860.425 102.909 860.5 101.751C860.442 101.026 860.551 100.298 860.818 99.6223C861.085 98.9464 861.503 98.3404 862.04 97.8506C863.15 96.9606 864.78 96.7406 866.88 97.1806C881.44 100.511 888.83 107.841 888.83 119.001Z" fill="white"/>
<path d="M746 65.5201C746.237 66.1554 746.343 66.8323 746.31 67.5096C746.277 68.1869 746.107 68.8505 745.81 69.4601L721.33 132.92C719.15 138.36 715.76 141.11 711.22 141.11C706.68 141.11 703.22 138.36 701.11 132.93L676.63 69.4401C676.303 68.8382 676.117 68.1696 676.086 67.4852C676.056 66.8008 676.182 66.1184 676.455 65.4899C676.728 64.8615 677.14 64.3034 677.661 63.8581C678.181 63.4129 678.797 63.092 679.46 62.9201C682.46 61.7801 684.8 62.8101 685.94 65.7501L710.94 131.11C711.05 131.38 711.11 131.38 711.22 131.38C711.33 131.38 711.36 131.32 711.45 131.1L736.51 65.7501C737.65 62.8101 740 61.7501 742.98 62.9101C743.636 63.1144 744.242 63.4516 744.762 63.9006C745.281 64.3497 745.703 64.9009 746 65.5201V65.5201Z" fill="white"/>
<path d="M1165.26 67.5905C1165.26 70.7505 1163.4 72.5905 1160.18 72.5905H1139.36V134.861C1139.36 138.091 1137.55 139.941 1134.36 139.941C1131.17 139.941 1129.44 138.091 1129.44 134.861V72.5605H1108.44C1105.22 72.5605 1103.37 70.7505 1103.37 67.5605C1103.37 64.3705 1105.22 62.5605 1108.44 62.5605H1160.18C1163.4 62.6205 1165.26 64.4305 1165.26 67.5905Z" fill="white"/>
<path d="M942.75 98.2091C944.088 97.7309 945.499 97.4906 946.92 97.4991H978.77C981.99 97.4991 983.84 99.3091 983.84 102.499C983.84 105.689 981.99 107.409 978.77 107.409H946.92C945.43 107.409 944.92 107.939 944.92 109.409V134.829C944.92 138.059 943.13 139.909 940.01 139.909C936.89 139.909 935.01 138.059 935.01 134.829V109.409C934.989 107.84 935.289 106.283 935.891 104.833C936.492 103.383 937.384 102.072 938.51 100.979C939.452 100.024 940.547 99.2325 941.75 98.6391C941.178 98.8019 940.585 98.8794 939.99 98.8691C936.82 98.8691 934.99 97.0191 934.99 93.7991V70.4591C934.99 65.4591 937.81 62.6191 942.99 62.6191H980.74C983.96 62.6191 985.81 64.4291 985.81 67.6191C985.81 70.8091 983.96 72.6191 980.74 72.6191H944.89V93.7991C944.97 94.6596 944.813 95.5255 944.436 96.303C944.059 97.0804 943.476 97.7397 942.75 98.2091V98.2091Z" fill="white"/>
<path d="M817.57 67.6991V108.779C817.625 113.688 816.647 118.553 814.7 123.059C814.369 123.992 813.747 124.793 812.926 125.346C812.105 125.899 811.128 126.173 810.14 126.129C806.98 126.129 805.14 124.319 805.14 121.129C805.135 120.538 805.226 119.951 805.41 119.389C806.914 115.92 807.66 112.17 807.6 108.389V67.6991C807.6 64.4691 809.41 62.6191 812.6 62.6191C815.79 62.6191 817.57 64.4691 817.57 67.6991Z" fill="white"/>
<path d="M1058 101.849C1057.18 101.849 1056.37 101.644 1055.65 101.253C1054.93 100.862 1054.32 100.297 1053.87 99.6094L1038.41 75.9994L1038.5 78.8194C1038.57 81.8194 1038.61 84.8194 1038.61 87.8194V134.819C1038.61 138.049 1036.81 139.899 1033.68 139.899C1030.55 139.899 1028.68 138.049 1028.68 134.819V70.8194C1028.68 65.5294 1031.46 62.6094 1036.52 62.6094C1039.52 62.6094 1042.02 64.0494 1044.03 66.8894L1062.03 94.1594C1062.56 94.965 1062.85 95.9053 1062.86 96.8694C1062.88 99.9994 1061.09 101.849 1058 101.849Z" fill="white"/>
<path d="M1239.94 95.7298C1239.64 86.853 1242.88 78.2204 1248.94 71.7298C1251.91 68.4931 1255.54 65.927 1259.58 64.2026C1263.62 62.4783 1267.99 61.6353 1272.38 61.7298C1286.03 61.7298 1295.38 68.0398 1300.23 80.4598C1300.5 81.1134 1300.64 81.813 1300.64 82.5198C1300.64 85.5198 1298.88 87.2298 1295.82 87.2298C1294.8 87.2541 1293.81 86.9581 1292.97 86.3838C1292.13 85.8095 1291.49 84.9859 1291.15 84.0298C1287.64 75.5398 1281.49 71.4098 1272.38 71.4098C1269.34 71.3096 1266.31 71.8917 1263.52 73.1134C1260.74 74.335 1258.26 76.1653 1256.27 78.4698C1252.17 83.0598 1250 88.9998 1249.84 96.1198C1249.84 99.2498 1248.05 101.06 1244.92 101.06C1241.79 101.06 1239.94 99.0898 1239.94 95.7298Z" fill="white"/>
<path d="M1300.63 120.11C1300.62 120.797 1300.48 121.476 1300.22 122.11C1295.39 134.52 1286.02 140.83 1272.37 140.83C1267.98 140.925 1263.61 140.082 1259.57 138.357C1255.53 136.633 1251.9 134.067 1248.93 130.83C1245.93 127.617 1243.59 123.844 1242.04 119.726C1240.5 115.608 1239.78 111.226 1239.93 106.83C1239.93 103.5 1241.74 101.57 1244.93 101.57C1248.12 101.57 1249.85 103.38 1249.85 106.57C1250.01 113.66 1252.18 119.57 1256.28 124.19C1258.28 126.482 1260.76 128.299 1263.54 129.51C1266.33 130.721 1269.35 131.295 1272.39 131.19C1281.5 131.19 1287.65 127.06 1291.16 118.58C1291.51 117.626 1292.14 116.805 1292.98 116.232C1293.82 115.66 1294.81 115.365 1295.83 115.39C1298.87 115.35 1300.63 117.09 1300.63 120.11Z" fill="white"/>
<path d="M1325.58 67.6991V134.829C1325.58 138.059 1323.79 139.909 1320.66 139.909C1317.53 139.909 1315.66 138.059 1315.66 134.829V67.6991C1315.66 64.4691 1317.47 62.6191 1320.66 62.6191C1323.85 62.6191 1325.58 64.4691 1325.58 67.6991Z" fill="white"/>
<path d="M1377.68 67.6991V134.829C1377.68 138.059 1375.87 139.909 1372.68 139.909C1369.49 139.909 1367.68 138.059 1367.68 134.829V106.239H1331.1C1327.91 106.239 1326.1 104.429 1326.1 101.239C1326.1 98.0491 1327.93 96.3291 1331.1 96.3291H1367.74V67.6991C1367.74 64.4691 1369.55 62.6191 1372.74 62.6191C1375.93 62.6191 1377.68 64.4691 1377.68 67.6991Z" fill="white"/>
<path d="M547.09 243.711C545.51 243.783 543.952 243.318 542.67 242.391C541.409 241.336 540.467 239.951 539.95 238.391L522.78 190.111C522.399 189.223 522.242 188.256 522.322 187.293C522.402 186.331 522.718 185.403 523.24 184.591C524.287 183.057 526.117 182.291 528.73 182.291C530.239 182.196 531.731 182.651 532.93 183.571C534.076 184.669 534.914 186.048 535.36 187.571L549.36 229.311H545.71L560.5 187.661C561.003 186.147 561.86 184.776 563 183.661C564.118 182.73 565.548 182.258 567 182.341C568.396 182.274 569.764 182.747 570.82 183.661C571.957 184.82 572.803 186.232 573.29 187.781L587.4 229.351H584.25L598.53 187.611C598.938 186.083 599.762 184.698 600.91 183.611C602.092 182.676 603.576 182.207 605.08 182.291C606.017 182.22 606.957 182.395 607.806 182.798C608.654 183.201 609.383 183.819 609.92 184.591C610.428 185.411 610.724 186.345 610.784 187.308C610.843 188.271 610.663 189.234 610.26 190.111L592.9 238.441C592.429 239.967 591.547 241.333 590.35 242.391C589.076 243.333 587.512 243.8 585.93 243.711C584.377 243.793 582.844 243.326 581.6 242.391C580.383 241.313 579.473 239.933 578.96 238.391L565.53 200.391H567.53L554 238.441C553.482 239.954 552.591 241.312 551.41 242.391C550.176 243.336 548.642 243.804 547.09 243.711V243.711Z" fill="white"/>
<path d="M627 242.94C626.07 243.045 625.129 242.94 624.246 242.631C623.364 242.322 622.561 241.819 621.9 241.158C621.238 240.497 620.733 239.696 620.423 238.813C620.114 237.931 620.006 236.99 620.11 236.06V189.9C620.003 188.969 620.108 188.026 620.416 187.141C620.725 186.256 621.229 185.452 621.891 184.789C622.553 184.126 623.356 183.62 624.241 183.311C625.126 183.001 626.069 182.895 627 183H656.66C657.36 182.951 658.062 183.041 658.727 183.266C659.391 183.491 660.004 183.846 660.53 184.31C660.994 184.821 661.35 185.419 661.577 186.071C661.804 186.722 661.896 187.412 661.85 188.1C661.94 188.803 661.868 189.517 661.638 190.187C661.409 190.857 661.03 191.466 660.528 191.966C660.027 192.467 659.417 192.845 658.747 193.073C658.076 193.301 657.362 193.372 656.66 193.28H632.66V207.28H654.66C655.372 207.225 656.089 207.312 656.767 207.537C657.445 207.762 658.072 208.12 658.61 208.59C659.466 209.699 659.931 211.06 659.931 212.46C659.931 213.861 659.466 215.222 658.61 216.33C658.073 216.802 657.446 217.162 656.768 217.389C656.09 217.616 655.373 217.705 654.66 217.65H632.66V232.65H656.66C657.36 232.598 658.063 232.688 658.728 232.913C659.393 233.138 660.005 233.494 660.53 233.96C660.994 234.471 661.35 235.069 661.577 235.721C661.804 236.372 661.896 237.062 661.85 237.75C661.94 238.453 661.868 239.167 661.638 239.837C661.409 240.507 661.03 241.116 660.528 241.616C660.027 242.117 659.417 242.495 658.747 242.723C658.076 242.951 657.362 243.022 656.66 242.93L627 242.94Z" fill="white"/>
<path d="M701.87 243.711C700.969 243.772 700.065 243.644 699.216 243.336C698.367 243.028 697.592 242.546 696.94 241.921C695.742 240.54 695.132 238.746 695.24 236.921V189.051C695.132 187.226 695.742 185.432 696.94 184.051C697.592 183.426 698.367 182.944 699.216 182.636C700.065 182.328 700.969 182.2 701.87 182.261C702.757 182.204 703.646 182.334 704.48 182.642C705.314 182.95 706.073 183.43 706.71 184.051C707.908 185.432 708.518 187.226 708.41 189.051V236.911C708.52 238.727 707.929 240.517 706.76 241.911C706.118 242.539 705.35 243.024 704.507 243.334C703.664 243.644 702.766 243.773 701.87 243.711V243.711Z" fill="white"/>
<path d="M726.6 243.71C725.77 243.763 724.937 243.643 724.156 243.357C723.374 243.071 722.661 242.626 722.06 242.05C720.938 240.743 720.371 239.049 720.48 237.33V188.88C720.358 187.095 720.923 185.331 722.06 183.95C722.598 183.382 723.251 182.936 723.975 182.642C724.7 182.349 725.479 182.215 726.26 182.25C727.501 182.173 728.734 182.484 729.79 183.14C730.862 183.994 731.819 184.982 732.64 186.08L762.47 224.08H760.18V188.54C760.076 186.85 760.64 185.187 761.75 183.91C763.024 182.838 764.636 182.251 766.3 182.251C767.965 182.251 769.576 182.838 770.85 183.91C771.957 185.189 772.521 186.851 772.42 188.54V237.54C772.508 239.158 771.992 240.751 770.97 242.01C770.484 242.56 769.88 242.995 769.203 243.282C768.527 243.569 767.795 243.702 767.06 243.67C765.736 243.733 764.421 243.406 763.28 242.73C762.134 241.887 761.123 240.876 760.28 239.73L730.53 201.73H732.74V237.26C732.851 238.97 732.304 240.659 731.21 241.98C730.608 242.578 729.886 243.041 729.091 243.339C728.296 243.637 727.447 243.764 726.6 243.71Z" fill="white"/>
<path d="M790.61 243.71C789.778 243.764 788.943 243.645 788.16 243.359C787.377 243.073 786.661 242.627 786.06 242.05C784.941 240.741 784.378 239.047 784.49 237.33V188.88C784.364 187.096 784.926 185.332 786.06 183.95C786.599 183.381 787.254 182.935 787.98 182.642C788.707 182.349 789.487 182.215 790.27 182.25C791.51 182.173 792.744 182.484 793.8 183.14C794.87 183.992 795.825 184.981 796.64 186.08L826.48 224.08H824.18V188.54C824.078 186.849 824.646 185.186 825.76 183.91C827.032 182.837 828.641 182.249 830.305 182.249C831.968 182.249 833.578 182.837 834.85 183.91C835.961 185.187 836.524 186.85 836.42 188.54V237.54C836.506 239.156 835.993 240.747 834.98 242.01C834.49 242.556 833.886 242.988 833.21 243.275C832.534 243.562 831.804 243.697 831.07 243.67C829.745 243.736 828.43 243.409 827.29 242.73C826.139 241.892 825.127 240.88 824.29 239.73L794.54 201.73H796.75V237.26C796.861 238.97 796.313 240.659 795.22 241.98C794.618 242.578 793.895 243.041 793.101 243.339C792.306 243.637 791.457 243.764 790.61 243.71Z" fill="white"/>
<path d="M876.29 243.88C870.863 243.996 865.504 242.656 860.77 240C856.353 237.449 852.758 233.688 850.41 229.16C847.854 224.139 846.583 218.562 846.71 212.93C846.645 208.603 847.349 204.3 848.79 200.22C850.088 196.605 852.132 193.303 854.79 190.53C857.446 187.805 860.65 185.675 864.19 184.28C868.046 182.77 872.158 182.02 876.3 182.07C881.761 181.936 887.159 183.258 891.94 185.9C896.337 188.426 899.921 192.156 902.27 196.65C904.837 201.657 906.119 207.224 906 212.85C906.059 217.192 905.341 221.51 903.88 225.6C902.572 229.237 900.53 232.566 897.88 235.38C895.246 238.118 892.059 240.262 888.53 241.67C884.633 243.198 880.475 243.949 876.29 243.88V243.88ZM876.29 232.66C879.29 232.813 882.262 232.011 884.778 230.369C887.293 228.726 889.223 226.328 890.29 223.52C891.633 220.158 892.283 216.559 892.2 212.94C892.2 206.7 890.813 201.866 888.04 198.44C885.266 195.013 881.356 193.3 876.31 193.3C873.313 193.221 870.358 194.021 867.81 195.6C865.348 197.222 863.447 199.565 862.37 202.31C861.042 205.692 860.406 209.307 860.5 212.94C860.5 219.113 861.886 223.943 864.66 227.43C867.433 230.916 871.31 232.66 876.29 232.66V232.66Z" fill="white"/>
<path d="M939.44 243.709C937.86 243.772 936.3 243.339 934.98 242.469C933.7 241.495 932.714 240.187 932.13 238.689L910.71 191.089C909.96 189.698 909.719 188.089 910.03 186.539C910.33 185.266 911.088 184.148 912.16 183.399C913.416 182.619 914.871 182.221 916.35 182.251C917.828 182.281 919.266 182.739 920.49 183.569C921.636 184.637 922.511 185.964 923.04 187.439L941.82 230.869H937.57L956.36 187.349C956.925 185.887 957.826 184.579 958.99 183.529C960.211 182.614 961.716 182.161 963.24 182.249C964.593 182.195 965.926 182.6 967.02 183.399C968.017 184.172 968.685 185.294 968.89 186.539C969.118 188.094 968.867 189.681 968.17 191.089L946.75 238.689C946.13 240.167 945.15 241.467 943.9 242.469C942.587 243.355 941.021 243.79 939.44 243.709Z" fill="white"/>
<path d="M972.68 243.71C971.303 243.774 969.944 243.384 968.81 242.6C967.826 241.877 967.156 240.803 966.94 239.6C966.708 238.169 966.962 236.701 967.66 235.43L989.42 187.75C990.115 186.092 991.228 184.641 992.65 183.54C993.932 182.68 995.441 182.221 996.985 182.221C998.529 182.221 1000.04 182.68 1001.32 183.54C1002.73 184.631 1003.82 186.087 1004.47 187.75L1026.4 235.43C1027.09 236.72 1027.37 238.188 1027.2 239.64C1027.13 240.233 1026.94 240.806 1026.64 241.322C1026.34 241.838 1025.94 242.287 1025.46 242.64C1024.36 243.393 1023.05 243.768 1021.72 243.71C1020.12 243.811 1018.53 243.328 1017.26 242.35C1016.03 241.164 1015.08 239.71 1014.5 238.1L1009.4 226.28L1014.67 229.94H979.22L984.49 226.28L979.49 238.1C978.886 239.692 977.976 241.15 976.81 242.39C975.655 243.347 974.175 243.82 972.68 243.71V243.71ZM996.82 197L985.94 223L983.64 219.68H1010.25L1008 223L997 197H996.82Z" fill="white"/>
<path d="M1049.18 243.711C1048.28 243.773 1047.37 243.645 1046.53 243.337C1045.68 243.029 1044.9 242.546 1044.25 241.921C1043.05 240.54 1042.44 238.746 1042.55 236.921V193.921H1027.55C1026.81 193.969 1026.06 193.865 1025.36 193.616C1024.66 193.367 1024.02 192.977 1023.47 192.471C1022.55 191.342 1022.04 189.929 1022.04 188.471C1022.04 187.013 1022.55 185.6 1023.47 184.471C1024.02 183.978 1024.67 183.601 1025.37 183.361C1026.07 183.12 1026.81 183.022 1027.55 183.071H1070.82C1071.56 183.024 1072.3 183.124 1073 183.364C1073.7 183.604 1074.35 183.98 1074.9 184.471C1075.82 185.6 1076.33 187.013 1076.33 188.471C1076.33 189.929 1075.82 191.342 1074.9 192.471C1074.35 192.976 1073.71 193.364 1073.01 193.613C1072.31 193.863 1071.56 193.967 1070.82 193.921H1055.82V236.921C1055.93 238.739 1055.34 240.531 1054.16 241.921C1053.51 242.561 1052.73 243.052 1051.87 243.361C1051.01 243.67 1050.09 243.789 1049.18 243.711V243.711Z" fill="white"/>
<path d="M1088.87 242.939C1087.94 243.046 1087 242.942 1086.12 242.634C1085.23 242.326 1084.43 241.823 1083.77 241.161C1083.11 240.5 1082.6 239.697 1082.3 238.814C1081.99 237.93 1081.88 236.989 1081.99 236.059V189.899C1081.88 188.97 1081.99 188.028 1082.3 187.145C1082.6 186.261 1083.11 185.459 1083.77 184.797C1084.43 184.136 1085.23 183.632 1086.12 183.324C1087 183.017 1087.94 182.912 1088.87 183.019H1118.54C1119.24 182.97 1119.94 183.06 1120.6 183.285C1121.26 183.51 1121.88 183.865 1122.4 184.329C1122.86 184.84 1123.22 185.438 1123.45 186.09C1123.67 186.741 1123.77 187.431 1123.72 188.119C1123.81 188.821 1123.74 189.534 1123.51 190.203C1123.28 190.872 1122.9 191.481 1122.4 191.981C1121.9 192.481 1121.29 192.86 1120.62 193.088C1119.95 193.317 1119.24 193.389 1118.54 193.299H1094.54V207.299H1116.54C1117.26 207.236 1117.99 207.319 1118.67 207.544C1119.36 207.77 1120 208.132 1120.54 208.609C1121.4 209.718 1121.86 211.079 1121.86 212.479C1121.86 213.88 1121.4 215.241 1120.54 216.349C1120 216.829 1119.36 217.193 1118.68 217.42C1117.99 217.646 1117.26 217.731 1116.54 217.669H1094.54V232.669H1118.54C1119.24 232.618 1119.94 232.707 1120.6 232.932C1121.27 233.157 1121.88 233.513 1122.4 233.979C1122.86 234.49 1123.22 235.088 1123.45 235.74C1123.67 236.391 1123.77 237.081 1123.72 237.769C1123.81 238.471 1123.74 239.184 1123.51 239.853C1123.28 240.522 1122.9 241.131 1122.4 241.631C1121.9 242.131 1121.29 242.51 1120.62 242.738C1119.95 242.967 1119.24 243.039 1118.54 242.949L1088.87 242.939Z" fill="white"/>
</svg>
