<svg width="24" height="24" viewBox="0 0 24 24" fill="none" xmlns="http://www.w3.org/2000/svg">
<path d="M23.2793 2.27026H0.720721C0.324324 2.27026 0 2.72026 0 3.27026C0 3.82026 0.324324 4.27026 0.720721 4.27026H23.2793C23.6757 4.27026 24 3.82026 24 3.27026C24 2.72026 23.6757 2.27026 23.2793 2.27026Z" fill="white"/>
<path d="M16.5766 8.25226H0.720721C0.324324 8.25226 0 8.70226 0 9.25226C0 9.80226 0.324324 10.2523 0.720721 10.2523H16.5766C16.973 10.2523 17.2973 9.80226 17.2973 9.25226C17.2973 8.70226 16.973 8.25226 16.5766 8.25226Z" fill="white"/>
<path d="M23.2793 14.3063H0.720721C0.324324 14.3063 0 14.7563 0 15.3063C0 15.8563 0.324324 16.3063 0.720721 16.3063H23.2793C23.6757 16.3063 24 15.8563 24 15.3063C24 14.7563 23.6757 14.3063 23.2793 14.3063Z" fill="white"/>
<path d="M10.8829 20.2883H0.720721C0.324324 20.2883 0 20.7383 0 21.2883C0 21.8383 0.324324 22.2883 0.720721 22.2883H10.8829C11.2793 22.2883 11.6036 21.8383 11.6036 21.2883C11.6036 20.7383 11.2793 20.2883 10.8829 20.2883Z" fill="white"/>
</svg>
