<svg width="24" height="24" viewBox="0 0 24 24" fill="none" xmlns="http://www.w3.org/2000/svg">
<path d="M23.2793 2.27026H0.720721C0.324324 2.27026 0 2.72026 0 3.27026C0 3.82026 0.324324 4.27026 0.720721 4.27026H23.2793C23.6757 4.27026 24 3.82026 24 3.27026C24 2.72026 23.6757 2.27026 23.2793 2.27026Z" fill="#758695"/>
<path d="M23.2799 8.25226H7.49611C7.09971 8.25226 6.77539 8.70226 6.77539 9.25226C6.77539 9.80226 7.09971 10.2523 7.49611 10.2523H23.2799C23.6763 10.2523 24.0006 9.80226 24.0006 9.25226C24.0006 8.70226 23.6763 8.25226 23.2799 8.25226Z" fill="#758695"/>
<path d="M23.2793 14.3063H0.720721C0.324324 14.3063 0 14.7563 0 15.3063C0 15.8563 0.324324 16.3063 0.720721 16.3063H23.2793C23.6757 16.3063 24 15.8563 24 15.3063C24 14.7563 23.6757 14.3063 23.2793 14.3063Z" fill="#758695"/>
<path d="M23.2794 20.2883H13.1172C12.7208 20.2883 12.3965 20.7383 12.3965 21.2883C12.3965 21.8383 12.7208 22.2883 13.1172 22.2883H23.2794C23.6758 22.2883 24.0001 21.8383 24.0001 21.2883C24.0001 20.7383 23.6758 20.2883 23.2794 20.2883Z" fill="#758695"/>
</svg>
