<svg width="24" height="24" viewBox="0 0 24 24" fill="#758695" xmlns="http://www.w3.org/2000/svg">
<path d="M0.750002 4.25H23.25C23.6642 4.25 24 3.8023 24 3.25C24 2.6977 23.6642 2.25 23.25 2.25H0.750002C0.335775 2.25 0 2.6977 0 3.25C0 3.8023 0.335775 4.25 0.750002 4.25Z" fill="#758695"/>
<path d="M4.125 8.25C3.71077 8.25 3.375 8.6977 3.375 9.25C3.375 9.8023 3.71077 10.25 4.125 10.25H19.875C20.2893 10.25 20.625 9.8023 20.625 9.25C20.625 8.6977 20.2893 8.25 19.875 8.25H4.125Z" fill="#758695"/>
<path d="M23.25 14.2501H0.750002C0.335775 14.2501 0 14.6978 0 15.2501C0 15.8024 0.335775 16.2501 0.750002 16.2501H23.25C23.6642 16.2501 24 15.8024 24 15.2501C24 14.6978 23.6642 14.2501 23.25 14.2501Z" fill="#758695"/>
<path d="M17.0625 20.25H6.9375C6.52327 20.25 6.1875 20.6977 6.1875 21.25C6.1875 21.8023 6.52327 22.25 6.9375 22.25H17.0625C17.4767 22.25 17.8125 21.8023 17.8125 21.25C17.8125 20.6977 17.4767 20.25 17.0625 20.25Z" fill="#758695"/>
</svg>
