<svg width="24" height="24" viewBox="0 0 24 24" fill="none" xmlns="http://www.w3.org/2000/svg">
<path d="M4 22V2H11.1112C13.6804 2 15.6859 2.46021 17.1271 3.38052C18.5681 4.30072 19.2888 5.67221 19.2888 7.49453C19.2888 8.44704 19.0567 9.2937 18.592 10.0358C18.1274 10.7778 17.4116 11.3363 16.4444 11.7116C17.658 11.9771 18.5539 12.5105 19.1324 13.3119C19.7105 14.1132 20 15.036 20 16.0798C20 18.0303 19.322 19.5048 17.9664 20.5027C16.6103 21.5011 14.6668 22 12.135 22H4ZM8.82142 10.3379H11.2107C12.301 10.3196 13.1166 10.1159 13.6571 9.72656C14.1975 9.33747 14.4678 8.76744 14.4678 8.01648C14.4678 7.16475 14.1927 6.54456 13.6431 6.15524C13.0928 5.76615 12.2491 5.57143 11.1113 5.57143H8.82142V10.3379ZM8.82142 13.415V18.4287H12.135C13.1591 18.4287 13.9272 18.234 14.4392 17.8446C14.9511 17.4556 15.2074 16.8582 15.2074 16.0523C15.2074 15.1823 14.9868 14.5253 14.5458 14.081C14.1051 13.637 13.3916 13.415 12.4056 13.415H8.82142Z" fill="white"/>
</svg>
