<svg width="24" height="24" viewBox="0 0 24 24" fill="none" xmlns="http://www.w3.org/2000/svg">
<g clip-path="url(#clip0_2598_9041)">
<path d="M22.4762 3H1.52383C0.682309 3 0 3.6579 0 4.46937V19.5307C0 20.3421 0.682309 21 1.52383 21H22.4762C23.3177 21 24 20.3421 24 19.5306V4.46937C24 3.6579 23.3178 3 22.4762 3ZM22.4762 4.46937V15.1559L19.4731 12.5231C19.0217 12.1275 18.3276 12.1433 17.8964 12.5595L14.8571 15.4898L8.8644 8.58732C8.41142 8.06568 7.5817 8.06056 7.12192 8.57594L1.52383 14.8495V4.46937H22.4762ZM16 8.32652C16 7.21051 16.9379 6.3061 18.0952 6.3061C19.2526 6.3061 20.1905 7.21051 20.1905 8.32652C20.1905 9.44254 19.2526 10.3469 18.0952 10.3469C16.9379 10.347 16 9.44254 16 8.32652Z" fill="white"/>
</g>
<defs>
<clipPath id="clip0_2598_9041">
<rect width="24" height="24" fill="white"/>
</clipPath>
</defs>
</svg>
