<svg width="24" height="24" viewBox="0 0 24 24" fill="none" xmlns="http://www.w3.org/2000/svg">
<path d="M4.61538 22H14.4615C14.8014 22 15.0769 21.7377 15.0769 21.4141C15.0769 21.0905 14.8014 20.8281 14.4615 20.8281H12.3836C12.1824 20.8281 12.0008 20.7473 11.8853 20.6065C11.7771 20.4746 11.7421 20.3086 11.7868 20.1385L15.8612 4.50336C16.067 3.71941 16.8036 3.17188 17.6522 3.17188H19.3846C19.7245 3.17188 20 2.90953 20 2.58594C20 2.26234 19.7245 2 19.3846 2H9.53846C9.19861 2 8.92308 2.26234 8.92308 2.58594C8.92308 2.90953 9.19861 3.17188 9.53846 3.17188H11.6164C11.8072 3.17188 11.984 3.25402 12.1015 3.39723C12.2189 3.54043 12.2597 3.72363 12.2132 3.90059L8.13879 19.5357C7.93584 20.3088 7.21608 20.8281 6.34777 20.8281H4.61538C4.27553 20.8281 4 21.0905 4 21.4141C4 21.7377 4.27553 22 4.61538 22Z" fill="white"/>
</svg>
