<svg width="24" height="24" viewBox="0 0 24 24" fill="none" xmlns="http://www.w3.org/2000/svg">
<g clip-path="url(#clip0_2598_9031)">
<path d="M7.729 4.2333H22.8657C23.4927 4.2333 24.001 3.73653 24.001 3.12376C24.001 2.511 23.4927 2.01422 22.8657 2.01422H7.729C7.10204 2.01422 6.59375 2.511 6.59375 3.12376C6.59375 3.73653 7.10204 4.2333 7.729 4.2333Z" fill="#758695"/>
<path d="M22.8657 10.8905H7.729C7.10204 10.8905 6.59375 11.3873 6.59375 12C6.59375 12.6128 7.10204 13.1096 7.729 13.1096H22.8657C23.4927 13.1096 24.001 12.6128 24.001 12C24.001 11.3872 23.4927 10.8905 22.8657 10.8905Z" fill="#758695"/>
<path d="M22.8657 19.7669H7.729C7.10204 19.7669 6.59375 20.2637 6.59375 20.8764C6.59375 21.4892 7.10204 21.986 7.729 21.986H22.8657C23.4927 21.986 24.001 21.4892 24.001 20.8764C24.001 20.2637 23.4927 19.7669 22.8657 19.7669Z" fill="#758695"/>
<path d="M1.34898 3.89902V6.6776C1.34898 6.97896 1.60025 7.20619 1.93356 7.20619C2.26127 7.20619 2.51791 6.974 2.51791 6.6776V2.52245C2.51791 2.22953 2.27216 2 1.95846 2C1.68251 2 1.54447 2.18093 1.49913 2.2404C1.49724 2.24292 1.49535 2.24543 1.49346 2.24809L0.999546 2.93098C0.903655 3.03291 0.818359 3.19594 0.818359 3.35231C0.818284 3.65041 1.05548 3.89354 1.34898 3.89902Z" fill="#758695"/>
<path d="M0.578178 14.6031H2.80373C3.09503 14.6031 3.33207 14.3523 3.33207 14.044C3.33207 13.7389 3.09511 13.4907 2.80373 13.4907H1.18773V13.4817C1.18773 13.3156 1.57735 13.0469 1.89045 12.8309C2.51325 12.4014 3.28833 11.8669 3.28833 10.9399C3.28833 10.0602 2.59083 9.39691 1.66583 9.39691C0.780102 9.39691 0.11227 9.99192 0.11227 10.781C0.11227 11.2388 0.417199 11.4013 0.678307 11.4013C1.05203 11.4013 1.27537 11.1293 1.27537 10.8665C1.27537 10.7031 1.31836 10.5156 1.65334 10.5156C2.10585 10.5156 2.11887 10.9074 2.11887 10.9521C2.11887 11.3044 1.65114 11.6337 1.19878 11.9521C0.639633 12.3457 0.00585939 12.7919 0.00585939 13.4818V14.0744C0.00578371 14.3907 0.301782 14.6031 0.578178 14.6031Z" fill="#758695"/>
<path d="M3.21254 18.2304C3.21254 17.3174 2.66096 16.7939 1.69932 16.7939C0.438435 16.7939 0.105276 17.674 0.105276 18.1393C0.105276 18.6811 0.517372 18.7396 0.694548 18.7396C1.03959 18.7396 1.27133 18.513 1.27133 18.1758C1.27133 18.046 1.31856 17.8971 1.68661 17.8971C1.95112 17.8971 2.05882 17.9344 2.05882 18.309C2.05882 18.675 1.97844 18.7149 1.66186 18.7149C1.35776 18.7149 1.12852 18.9494 1.12852 19.2604C1.12852 19.568 1.36056 19.8001 1.66822 19.8001C2.08637 19.8001 2.17038 19.967 2.17038 20.2363V20.3516C2.17038 20.8047 1.98957 20.8906 1.65588 20.8906C1.1955 20.8906 1.1597 20.6589 1.1597 20.5879C1.1597 20.3193 0.977528 20.0483 0.570502 20.0483C0.213276 20.0483 0 20.2659 0 20.6304C0 21.2943 0.58246 22 1.66186 22C2.71038 22 3.33643 21.3838 3.33643 20.3516V20.2363C3.33643 19.8131 3.19793 19.4622 2.93803 19.2099C3.11604 18.9582 3.21254 18.6223 3.21254 18.2304Z" fill="#758695"/>
</g>
<defs>
<clipPath id="clip0_2598_9031">
<rect width="24" height="24" fill="#758695"/>
</clipPath>
</defs>
</svg>
