<svg width="24" height="24" viewBox="0 0 24 24" fill="none" xmlns="http://www.w3.org/2000/svg">
<path d="M22.8096 21.5667H6.85195C6.19426 21.5667 5.6612 20.9097 5.6612 20.099C5.6612 19.2882 6.19426 18.6312 6.85195 18.6312H22.8092C23.4669 18.6312 24 19.2882 24 20.099C24 20.9097 23.4673 21.5667 22.8096 21.5667Z" fill="#758695"/>
<path d="M22.8096 13.4235H6.85195C6.19426 13.4235 5.6612 12.7664 5.6612 11.9557C5.6612 11.145 6.19426 10.4879 6.85195 10.4879H22.8092C23.4669 10.4879 24 11.145 24 11.9557C24.0004 12.7664 23.4673 13.4235 22.8096 13.4235Z" fill="#758695"/>
<path d="M22.8096 5.28025H6.85195C6.19426 5.28025 5.6612 4.62317 5.6612 3.81246C5.6612 3.00175 6.19426 2.34467 6.85195 2.34467H22.8092C23.4669 2.34467 24 3.00175 24 3.81246C24 4.62317 23.4673 5.28025 22.8096 5.28025Z" fill="#758695"/>
<path d="M2.03764 5.9141C3.163 5.9141 4.07529 5.0379 4.07529 3.95705C4.07529 2.8762 3.163 2 2.03764 2C0.912284 2 0 2.8762 0 3.95705C0 5.0379 0.912284 5.9141 2.03764 5.9141Z" fill="#758695"/>
<path d="M2.03764 13.9571C3.163 13.9571 4.07529 13.0808 4.07529 12C4.07529 10.9192 3.163 10.0429 2.03764 10.0429C0.912284 10.0429 0 10.9192 0 12C0 13.0808 0.912284 13.9571 2.03764 13.9571Z" fill="#758695"/>
<path d="M2.03764 22C3.163 22 4.07529 21.1238 4.07529 20.0429C4.07529 18.9621 3.163 18.0859 2.03764 18.0859C0.912284 18.0859 0 18.9621 0 20.0429C0 21.1238 0.912284 22 2.03764 22Z" fill="#758695"/>
</svg>
